<svg width="128" height="600" viewBox="0 0 128 600" fill="none" xmlns="http://www.w3.org/2000/svg">
<path d="M79.2 522.76L39.04 536.84L79.2 550.92L79.2 522.76ZM103.04 514.44V559.24L124 566.44L124 599.88L3.36002 553.96L3.36001 519.72L124 473.8V507.24L103.04 514.44Z" fill="white"/>
<path d="M99.68 428.719V421.839C99.68 413.945 98.6667 408.292 96.64 404.879C94.6133 401.465 91.36 399.759 86.88 399.759C82.4 399.759 79.1467 401.465 77.12 404.879C75.0933 408.292 74.08 413.945 74.08 421.839V428.719H99.68ZM50.72 428.719V422.959C50.72 413.145 46.8267 408.239 39.04 408.239C31.2533 408.239 27.36 413.145 27.36 422.959V428.719H50.72ZM3.36001 460.079L3.36001 413.359C3.36001 402.265 6.02667 393.839 11.36 388.079C16.6933 382.319 24.3733 379.439 34.4 379.439C40.48 379.439 45.5467 380.559 49.6 382.799C53.5467 384.932 56.9067 388.239 59.68 392.719C60.5333 388.239 61.8667 384.452 63.68 381.359C65.3867 378.159 67.52 375.599 70.08 373.679C72.64 371.652 75.52 370.212 78.72 369.359C81.92 368.505 85.3333 368.079 88.96 368.079C94.6133 368.079 99.6267 369.092 104 371.119C108.373 373.039 112.053 375.812 115.04 379.439C118.027 382.959 120.267 387.279 121.76 392.399C123.253 397.519 124 403.279 124 409.679L124 460.079H3.36001Z" fill="white"/>
<path d="M63.68 322.875C68.48 322.875 72.9067 321.968 76.96 320.155C81.0133 318.342 84.5333 315.888 87.52 312.795C90.5067 309.702 92.8533 306.128 94.56 302.075C96.16 297.915 96.96 293.542 96.96 288.955C96.96 284.368 96.16 280.048 94.56 275.995C92.8533 271.835 90.5067 268.208 87.52 265.115C84.5333 261.915 81.0133 259.408 76.96 257.595C72.9067 255.782 68.48 254.875 63.68 254.875C58.88 254.875 54.4533 255.782 50.4 257.595C46.3467 259.408 42.8267 261.915 39.84 265.115C36.8533 268.208 34.56 271.835 32.96 275.995C31.2533 280.048 30.4 284.368 30.4 288.955C30.4 293.542 31.2533 297.915 32.96 302.075C34.56 306.128 36.8533 309.702 39.84 312.795C42.8267 315.888 46.3467 318.342 50.4 320.155C54.4533 321.968 58.88 322.875 63.68 322.875ZM63.68 355.675C54.72 355.675 46.4 354.022 38.72 350.715C30.9333 347.408 24.16 342.822 18.4 336.955C12.64 331.088 8.16 324.102 4.96 315.995C1.65333 307.782 4.28955e-07 298.768 0 288.955C-4.24291e-07 279.248 1.65333 270.288 4.96 262.075C8.16 253.862 12.64 246.822 18.4 240.955C24.16 234.982 30.9333 230.342 38.72 227.035C46.4 223.728 54.72 222.075 63.68 222.075C72.64 222.075 81.0133 223.728 88.8 227.035C96.48 230.342 103.2 234.982 108.96 240.955C114.72 246.822 119.253 253.862 122.56 262.075C125.76 270.288 127.36 279.248 127.36 288.955C127.36 298.768 125.76 307.782 122.56 315.995C119.253 324.102 114.72 331.088 108.96 336.955C103.2 342.822 96.48 347.408 88.8 350.715C81.0133 354.022 72.64 355.675 63.68 355.675Z" fill="white"/>
<path d="M3.36 170.906H68.96C72.48 170.906 76.1067 170.8 79.84 170.586C83.4667 170.266 86.7733 169.466 89.76 168.186C92.7467 166.8 95.2 164.666 97.12 161.786C98.9333 158.906 99.84 154.853 99.84 149.626C99.84 144.4 98.9333 140.4 97.12 137.626C95.2 134.746 92.7467 132.613 89.76 131.226C86.7733 129.84 83.4667 129.04 79.84 128.826C76.1067 128.506 72.48 128.346 68.96 128.346H3.36L3.36 97.1462H73.28C92.0533 97.1462 105.76 101.466 114.4 110.106C123.04 118.64 127.36 131.813 127.36 149.626C127.36 167.44 123.04 180.666 114.4 189.306C105.76 197.946 92.0533 202.266 73.28 202.266H3.36L3.36 170.906Z" fill="white"/>
<path d="M29.92 26.0375L124 26.0375V57.3975L29.92 57.3975V83.1575H3.36L3.35999 0.277467L29.92 0.277466L29.92 26.0375Z" fill="white"/>
</svg>
