<svg width="209" height="142" viewBox="0 0 209 142" fill="none" xmlns="http://www.w3.org/2000/svg">
<g clip-path="url(#clip0_100_263)">
<path d="M192.809 141.79C183.054 141.79 177.269 136.798 176.827 129.609H186.153C186.153 132.005 187.481 135.195 193.252 135.394C197.251 135.394 199.465 132.998 199.465 131.196C199.022 128.402 195.465 128.204 191.923 127.594C187.924 127.014 184.825 126.205 182.597 125.212C179.498 123.61 177.712 120.206 177.712 116.619C177.712 110.222 183.054 105.23 192.366 105.23C201.251 105.23 207.021 109.826 207.448 116.817H198.579C198.579 115.03 198.137 112.023 192.809 112.023C189.252 112.023 187.039 112.619 186.596 115.213C186.596 118.816 194.137 118.618 199.907 120.007C205.235 121.411 208.791 124.8 208.791 129.609C208.791 138.401 201.693 141.79 192.809 141.79ZM22.8481 82.7983L53.4701 65.0142L69.895 93.1943H28.6184" fill="white"/>
<path d="M87.2412 140.73V105.162V140.73Z" fill="white"/>
<path d="M87.2412 140.73V105.162" stroke="white" stroke-width="8.96062"/>
<path d="M8.63567 123.472C8.63567 129.058 13.5201 133.654 18.8321 133.654C24.6176 133.654 29.0445 129.058 29.0445 123.472C29.0445 118.083 24.6176 113.29 18.8321 113.29C13.5201 113.29 8.63567 118.083 8.63567 123.472ZM18.3899 141.851C8.63497 141.851 0.20874 133.654 0.20874 123.472C0.20874 113.29 8.63567 105.291 18.3899 105.291C22.3892 105.291 25.9456 106.299 29.0445 108.481V105.688H37.929V141.042H29.0452V138.844C26.3892 140.844 22.3892 141.851 18.3899 141.851ZM136.913 93.1855L94.308 18.8749L124.929 0.892578L178.189 93.1855M49.4694 123.472C49.4694 129.058 53.9123 133.654 59.6818 133.654C64.9939 133.654 69.8943 129.058 69.8943 123.472C69.8943 118.083 64.9939 113.29 59.6818 113.29C53.9116 113.29 49.4694 118.083 49.4694 123.472ZM59.2389 141.851C49.0265 141.851 41.0432 133.654 41.0432 123.472C41.0432 113.29 49.0265 105.291 59.2389 105.291C63.223 105.291 66.7801 106.299 69.8943 108.481V93.506H78.7634V141.042H69.8936V138.844C66.7794 140.844 63.2237 141.851 59.2389 141.851ZM58.8016 51.0363L89.8658 33.4663L124.045 93.1834H91.6374V101.976H82.7676V93.1834M203.036 102.253C200.808 102.253 198.595 100.253 198.595 97.8565C198.595 95.4598 200.808 93.4601 203.036 93.4601C205.692 93.4601 207.479 95.4605 207.479 97.8565C207.479 100.252 205.692 102.253 203.036 102.253ZM203.036 94.0713C200.808 94.0713 199.48 95.8568 199.48 97.8565C199.48 99.8561 200.808 101.658 203.036 101.658C205.25 101.658 206.578 99.8568 206.578 97.8565C206.578 95.8561 205.25 94.0713 203.036 94.0713Z" fill="white"/>
<path d="M203.953 100.268L203.067 98.2686H202.182V100.268H201.51V95.4749H203.51C203.953 95.4749 204.838 96.0861 204.838 96.8794C204.838 97.6727 204.395 98.0704 203.953 98.2686L204.838 100.268M203.067 96.0861H202.182V97.6734H203.067C203.953 97.6734 203.953 97.4753 203.953 96.8794C203.953 96.4678 203.953 96.0861 203.067 96.0861ZM144.418 123.472C144.418 129.058 148.861 133.653 154.631 133.653C159.958 133.653 164.828 129.058 164.828 123.472C164.828 118.083 159.958 113.29 154.631 113.29C148.861 113.29 144.418 118.083 144.418 123.472ZM154.173 141.851C143.976 141.851 135.992 133.653 135.992 123.472C135.992 113.29 143.976 105.291 154.173 105.291C158.173 105.291 161.729 106.299 164.828 108.481V105.687H173.269V141.042H164.829V138.844C161.729 140.843 158.173 141.851 154.173 141.851ZM103.615 123.472C103.615 129.058 108.5 133.653 113.827 133.653C119.598 133.653 124.039 129.058 124.039 123.472C124.039 118.083 119.597 113.29 113.827 113.29C108.5 113.29 103.615 118.083 103.615 123.472ZM124.039 93.5059H132.908V141.042H124.039V138.844C121.368 140.843 117.812 141.851 113.827 141.851C103.615 141.851 95.1882 133.653 95.1882 123.472C95.1882 113.29 103.615 105.291 113.827 105.291C117.811 105.291 121.368 106.299 124.039 108.481V93.5059Z" fill="white"/>
</g>
<defs>
<clipPath id="clip0_100_263">
<rect width="208.582" height="141.085" fill="white" transform="translate(0.20874 0.82959)"/>
</clipPath>
</defs>
</svg>
