<svg width="72" height="518" viewBox="0 0 72 518" fill="none" xmlns="http://www.w3.org/2000/svg">
<path d="M24.57 466.02C19.59 470.1 17.1 475.14 17.1 481.14C17.1 483.78 17.58 486.24 18.54 488.52C19.5 490.74 20.82 492.66 22.5 494.28C24.12 495.9 26.07 497.19 28.35 498.15C30.63 499.05 33.09 499.5 35.73 499.5C38.43 499.5 40.92 499.05 43.2 498.15C45.48 497.19 47.46 495.9 49.14 494.28C50.82 492.6 52.14 490.65 53.1 488.43C54.06 486.21 54.54 483.81 54.54 481.23C54.54 475.59 52.14 470.52 47.34 466.02H68.22L68.85 467.82C69.81 470.52 70.5 473.04 70.92 475.38C71.4 477.72 71.64 480.03 71.64 482.31C71.64 486.99 70.77 491.49 69.03 495.81C67.23 500.07 64.74 503.85 61.56 507.15C58.32 510.39 54.51 513 50.13 514.98C45.69 516.96 40.86 517.95 35.64 517.95C30.42 517.95 25.65 516.99 21.33 515.07C16.95 513.09 13.2 510.48 10.08 507.24C6.90002 503.94 4.44002 500.13 2.70001 495.81C0.900016 491.49 1.70057e-05 486.96 1.68133e-05 482.22C1.67036e-05 479.52 0.300016 476.88 0.900016 474.3C1.44002 471.66 2.31002 468.9 3.51001 466.02H24.57Z" fill="white"/>
<path d="M35.82 438.504C38.52 438.504 41.01 437.994 43.29 436.974C45.57 435.954 47.55 434.574 49.23 432.834C50.91 431.094 52.23 429.084 53.19 426.804C54.09 424.464 54.54 422.004 54.54 419.424C54.54 416.844 54.09 414.414 53.19 412.134C52.23 409.794 50.91 407.754 49.23 406.014C47.55 404.214 45.57 402.804 43.29 401.784C41.01 400.764 38.52 400.254 35.82 400.254C33.12 400.254 30.63 400.764 28.35 401.784C26.07 402.804 24.09 404.214 22.41 406.014C20.73 407.754 19.44 409.794 18.54 412.134C17.58 414.414 17.1 416.844 17.1 419.424C17.1 422.004 17.58 424.464 18.54 426.804C19.44 429.084 20.73 431.094 22.41 432.834C24.09 434.574 26.07 435.954 28.35 436.974C30.63 437.994 33.12 438.504 35.82 438.504ZM35.82 456.954C30.78 456.954 26.1 456.024 21.78 454.164C17.4 452.304 13.59 449.724 10.35 446.424C7.11002 443.124 4.59001 439.194 2.79002 434.634C0.930015 430.014 1.4488e-05 424.944 1.42639e-05 419.424C1.40422e-05 413.964 0.930014 408.924 2.79002 404.304C4.59001 399.684 7.11001 395.724 10.35 392.424C13.59 389.064 17.4 386.454 21.78 384.594C26.1 382.734 30.78 381.804 35.82 381.804C40.86 381.804 45.57 382.734 49.95 384.594C54.27 386.454 58.05 389.064 61.29 392.424C64.53 395.724 67.08 399.684 68.94 404.304C70.74 408.924 71.64 413.964 71.64 419.424C71.64 424.944 70.74 430.014 68.94 434.634C67.08 439.194 64.53 443.124 61.29 446.424C58.05 449.724 54.27 452.304 49.95 454.164C45.57 456.024 40.86 456.954 35.82 456.954Z" fill="white"/>
<path d="M1.89001 353.021H38.79C40.77 353.021 42.81 352.961 44.91 352.841C46.95 352.661 48.81 352.211 50.49 351.491C52.17 350.711 53.55 349.511 54.63 347.891C55.65 346.271 56.16 343.991 56.16 341.051C56.16 338.111 55.65 335.861 54.63 334.301C53.55 332.681 52.17 331.481 50.49 330.701C48.81 329.921 46.95 329.471 44.91 329.351C42.81 329.171 40.77 329.081 38.79 329.081H1.89001L1.89001 311.531H41.22C51.78 311.531 59.49 313.961 64.35 318.821C69.21 323.621 71.64 331.031 71.64 341.051C71.64 351.071 69.21 358.511 64.35 363.371C59.49 368.231 51.78 370.661 41.22 370.661H1.89001L1.89001 353.021Z" fill="white"/>
<path d="M69.75 297.272H1.89001L1.89001 279.632L43.38 247.052H1.89001L1.89001 229.502L69.75 229.502V247.052L28.26 279.632H69.75V297.272Z" fill="white"/>
<path d="M16.83 189.531H69.75V207.171H16.83V221.661H1.89001L1.89001 175.041H16.83V189.531Z" fill="white"/>
<path d="M44.55 133.458L21.96 141.378L44.55 149.298V133.458ZM57.96 128.778L57.96 153.978L69.75 158.028V176.838L1.89001 151.008L1.89001 131.748L69.75 105.918V124.728L57.96 128.778Z" fill="white"/>
<path d="M24.57 51.879C19.59 55.959 17.1 60.999 17.1 66.999C17.1 69.639 17.58 72.099 18.54 74.379C19.5 76.599 20.82 78.519 22.5 80.139C24.12 81.759 26.07 83.049 28.35 84.009C30.63 84.909 33.09 85.359 35.73 85.359C38.43 85.359 40.92 84.909 43.2 84.009C45.48 83.049 47.46 81.759 49.14 80.139C50.82 78.459 52.14 76.509 53.1 74.289C54.06 72.069 54.54 69.669 54.54 67.089C54.54 61.449 52.14 56.379 47.34 51.879H68.22L68.85 53.679C69.81 56.379 70.5 58.899 70.92 61.239C71.4 63.579 71.64 65.889 71.64 68.169C71.64 72.849 70.77 77.349 69.03 81.669C67.23 85.929 64.74 89.709 61.56 93.009C58.32 96.249 54.51 98.859 50.13 100.839C45.69 102.819 40.86 103.809 35.64 103.809C30.42 103.809 25.65 102.849 21.33 100.929C16.95 98.949 13.2 96.339 10.08 93.099C6.9 89.799 4.44 85.989 2.7 81.669C0.899999 77.349 1.92434e-07 72.819 0 68.079C-1.09614e-07 65.379 0.3 62.739 0.899999 60.159C1.44 57.519 2.31 54.759 3.51 51.879L24.57 51.879Z" fill="white"/>
<path d="M16.83 14.9797L69.75 14.9797V32.6197L16.83 32.6197V47.1097H1.89L1.89 0.489747L16.83 0.489746L16.83 14.9797Z" fill="white"/>
</svg>
