<svg width="167" height="178" viewBox="0 0 167 178" fill="none" xmlns="http://www.w3.org/2000/svg">
<g clip-path="url(#clip0_100_392)">
<path d="M161.93 35.0393C161.93 35.0393 161.935 35.0297 161.939 35.0202C164.049 27.7141 163.104 20.2982 159.281 14.1326C155.483 8.00047 149.293 3.85827 141.863 2.47435C141.825 2.46958 141.787 2.47435 141.753 2.47435L140.398 0.28395C140.317 0.150331 140.183 0.0548887 140.026 0.0167118C139.873 -0.0214651 139.711 0.00716756 139.577 0.0882936L134.767 3.07087C134.485 3.24266 134.4 3.61012 134.576 3.89167L135.316 5.0847L113.679 18.4944L112.939 17.3013C112.858 17.1677 112.725 17.0723 112.567 17.0341C112.414 16.9959 112.252 17.0245 112.119 17.1057L107.308 20.0882C107.027 20.26 106.941 20.6275 107.117 20.909L109.699 25.0751L33.7604 72.1425L33.2116 71.2597C33.0398 70.9781 32.6723 70.8922 32.3908 71.0688L27.5805 74.0514C27.4469 74.1325 27.3514 74.2661 27.3133 74.4236C27.2751 74.5763 27.3037 74.7385 27.3848 74.8722L30.6919 80.2122L16.0892 89.2649L15.2493 87.9096C15.0775 87.628 14.7053 87.5421 14.4285 87.7187L10.6538 90.057C10.5202 90.1382 10.4247 90.2718 10.3865 90.4293C10.3484 90.582 10.377 90.7442 10.4581 90.8778L12.4863 94.1467L9.72322 95.8552L8.93105 94.581C8.75925 94.2994 8.38702 94.2135 8.11024 94.3901L3.14724 97.4681C3.01362 97.5493 2.91817 97.6829 2.87999 97.8404C2.84181 97.9931 2.87046 98.1553 2.95158 98.2889L14.3951 116.752C14.5097 116.934 14.7053 117.034 14.901 117.034C15.0107 117.034 15.1157 117.005 15.2159 116.943L20.1789 113.865C20.4605 113.693 20.5464 113.326 20.3698 113.044L19.5776 111.765L22.3407 110.052L24.3641 113.321C24.4452 113.455 24.5788 113.55 24.7363 113.588C24.7792 113.598 24.827 113.603 24.8747 113.603C24.9844 113.603 25.0942 113.574 25.1897 113.512L28.9644 111.174C29.2459 111.002 29.3319 110.634 29.1553 110.353L28.3154 108.998L42.9181 99.9449L46.2299 105.285C46.311 105.418 46.4447 105.514 46.6021 105.552C46.6451 105.562 46.6928 105.566 46.7405 105.566C46.8503 105.566 46.9601 105.538 47.0555 105.476L51.8658 102.493C52.1473 102.321 52.2332 101.954 52.0567 101.672L51.5079 100.79L71.7417 88.2484C74.1754 91.2739 77.3155 93.7077 80.9089 95.3016V100.518H78.499C78.1697 100.518 77.9025 100.785 77.9025 101.114V107.394C77.9025 107.723 78.1697 107.991 78.499 107.991H80.5987L77.2678 115.769H74.3138C73.9846 115.769 73.7173 116.036 73.7173 116.366V123.829C73.7173 123.934 73.7507 124.03 73.7984 124.116L58.8379 177.277C58.7854 177.458 58.8235 177.649 58.9381 177.797C59.0526 177.945 59.2292 178.036 59.4153 178.036H66.3348C66.6021 178.036 66.8359 177.859 66.9075 177.602L81.892 124.431H86.8168V177.439C86.8168 177.769 87.084 178.036 87.4133 178.036H94.0942C94.4235 178.036 94.6908 177.769 94.6908 177.439V124.431H99.9067L114.843 177.444C114.915 177.702 115.149 177.878 115.416 177.878H122.336C122.522 177.878 122.698 177.792 122.813 177.64C122.927 177.492 122.961 177.296 122.913 177.12L107.871 123.662V116.366C107.871 116.036 107.604 115.769 107.275 115.769H104.321L100.99 107.991H103.09C103.419 107.991 103.686 107.723 103.686 107.394V101.114C103.686 100.785 103.419 100.518 103.09 100.518H100.685V95.3016C109.26 91.4982 115.259 82.9084 115.259 72.9394C115.259 69.2792 114.443 65.8051 112.997 62.6889L122.598 56.7381C122.67 56.7667 122.746 56.7906 122.827 56.7906C122.932 56.7906 123.037 56.762 123.137 56.7047C123.309 56.5997 123.4 56.4231 123.414 56.237L127.456 53.7317L130.038 57.8977C130.152 58.0791 130.348 58.1793 130.544 58.1793C130.649 58.1793 130.758 58.1507 130.859 58.0886L135.669 55.106C135.803 55.0249 135.898 54.8913 135.936 54.7338C135.974 54.5811 135.946 54.4189 135.865 54.2852L135.125 53.0922L138.9 50.7539C138.962 50.7396 139.024 50.7205 139.081 50.6823C139.133 50.6489 139.172 50.6059 139.215 50.5582L152.658 42.2261C152.72 42.2118 152.782 42.1927 152.844 42.1545C152.896 42.1211 152.939 42.0734 152.977 42.0304L156.766 39.6826L157.506 40.8756C157.587 41.0092 157.721 41.1046 157.878 41.1428C157.921 41.1524 157.969 41.1571 158.017 41.1571C158.127 41.1571 158.236 41.1285 158.332 41.0665L163.142 38.0839C163.424 37.9121 163.509 37.5446 163.333 37.2631L161.954 35.0345L161.93 35.0393ZM13.3214 112.768L17.2727 110.319L18.2462 111.889L14.2949 114.338L13.3214 112.768ZM11.7179 110.181L15.6693 107.733L16.6428 109.303L12.6915 111.751L11.7179 110.181ZM10.1145 107.595L14.0659 105.146L15.0394 106.716L11.0881 109.165L10.1145 107.595ZM8.5111 105.008L12.4624 102.56L13.4359 104.13L9.48461 106.578L8.5111 105.008ZM6.90766 102.422L10.859 99.9735L11.8325 101.544L7.88118 103.992L6.90766 102.422ZM5.30423 99.8351L9.25555 97.387L10.2291 98.957L6.27775 101.405L5.30423 99.8351ZM8.22477 95.7215L8.6304 96.3753L4.67909 98.8234L4.27346 98.1696L8.22477 95.7215ZM15.0871 115.621L14.92 115.354L18.8714 112.906L19.0384 113.173L15.0871 115.621ZM18.9954 110.73L10.3913 96.8478L12.8919 95.2968L21.496 109.179L18.9954 110.73ZM44.4929 100.246L48.2867 97.8928L49.2602 99.4629L45.4664 101.816L44.4929 100.246ZM31.6702 79.5584L35.464 77.2057L36.4375 78.7757L32.6437 81.1284L31.6702 79.5584ZM39.0574 91.4743L38.0839 89.9043L41.8777 87.5517L42.8513 89.1217L39.0574 91.4743ZM43.4812 90.1382L44.4547 91.7082L40.6609 94.0608L39.6874 92.4908L43.4812 90.1382ZM37.454 88.8926L36.4805 87.3226L40.2743 84.9699L41.2478 86.54L37.454 88.8926ZM35.8505 86.3061L34.877 84.7361L38.6709 82.3835L39.6444 83.9535L35.8505 86.3061ZM34.2471 83.7197L33.2736 82.1496L37.0674 79.797L38.041 81.367L34.2471 83.7197ZM41.286 95.0773L45.0798 92.7246L46.0533 94.2947L42.2595 96.6473L41.286 95.0773ZM34.8389 76.1988L31.045 78.5515L30.0715 76.9814L33.8654 74.6288L34.8389 76.1988ZM43.61 98.8282L42.8894 97.6638L46.6833 95.3111L47.6568 96.8812L43.863 99.2338L43.61 98.8234V98.8282ZM32.491 72.4145L33.2307 73.6123L29.4368 75.965L28.6924 74.7672L32.4862 72.4145H32.491ZM36.1703 89.0883L18.1174 89.4128L31.3027 81.2382L36.1655 89.0883H36.1703ZM22.7416 108.468L25.5046 106.755L26.4781 108.325L23.7151 110.038L22.7416 108.468ZM18.4657 95.4018L15.7027 97.115L14.7292 95.545L17.4922 93.8318L18.4657 95.4018ZM19.0957 96.4135L20.0692 97.9835L17.3061 99.6919L16.3326 98.1219L19.0957 96.4087V96.4135ZM20.6991 99L21.6726 100.57L18.9095 102.283L17.936 100.713L20.6991 99ZM22.3025 101.586L23.276 103.156L20.513 104.87L19.5395 103.3L22.3025 101.586ZM23.906 104.173L24.8795 105.748L22.1164 107.456L21.1429 105.886L23.906 104.173ZM16.8671 92.8153L14.104 94.5285L13.1305 92.9585L15.8936 91.2453L16.8671 92.8153ZM27.2464 107.179L16.9864 90.6297L36.3325 90.2813L27.2417 107.179H27.2464ZM14.5431 89.0597L15.2684 90.2288L12.5054 91.942L11.78 90.7729L14.5431 89.0644V89.0597ZM25.0656 112.204L24.3545 111.054L27.1176 109.341L27.8286 110.491L25.0656 112.204ZM28.4013 107.561L37.3347 90.9494L42.2929 98.9475L28.4013 107.561ZM46.9314 104.168L46.1058 102.837L49.8997 100.484L50.7253 101.816L46.9314 104.168ZM106.674 123.252H105.199L105.209 116.981H106.674V123.252ZM115.869 176.7L101.147 124.445H104.579C104.579 124.445 104.598 124.45 104.607 124.45C104.607 124.45 104.626 124.445 104.636 124.445H106.85L121.558 176.7H115.869ZM88.0098 176.857V119.196H93.4977V176.857H88.0098ZM60.2027 176.857L74.9533 124.445H80.6512L65.8815 176.857H60.2027ZM104.006 123.252H101.224L101.233 116.981H104.015L104.006 123.252ZM89.2935 118.003V116.981H92.0804V118.003H89.2935ZM77.3632 123.252L77.3728 116.981H80.1549L80.1454 123.252H77.3632ZM76.1797 116.981L76.1702 123.252H74.9104V116.981H76.1797ZM81.3432 123.252L81.3527 116.981H84.1348L84.1253 123.252H81.3432ZM85.3279 116.981H88.11V118.003H87.4133C87.084 118.003 86.8168 118.27 86.8168 118.599V123.252H85.3183L85.3279 116.981ZM94.0942 118.003H93.2735V116.981H96.0651L96.0556 123.252H94.6908V118.599C94.6908 118.27 94.4235 118.003 94.0942 118.003ZM97.2582 116.981H100.04L100.031 123.252H97.2486L97.2582 116.981ZM97.0864 106.817L97.1007 101.73H99.8828V106.817H97.0864ZM81.1761 106.817L81.1857 101.73H83.9678V106.817H81.1761ZM87.943 101.73V106.817H85.1513V101.73H87.943ZM91.9325 101.73L91.9182 106.817H89.136V101.73H91.9325ZM93.1303 101.73H95.9124L95.8981 106.817H93.116L93.1303 101.73ZM79.1098 101.73H80.007L79.9974 106.817H79.1098V101.73ZM103.009 115.745H78.5992L81.911 108.01H99.6967L103.009 115.745ZM102.498 106.817H101.076V101.73H102.498V106.817ZM90.8063 96.2178C77.9788 96.2178 67.5422 85.7812 67.5422 72.9538C67.5422 60.1263 77.9788 49.6897 90.8063 49.6897C103.634 49.6897 114.07 60.1263 114.07 72.9538C114.07 85.7812 103.634 96.2178 90.8063 96.2178ZM50.8827 89.0406L65.7861 79.8065L55.421 96.361L50.8875 89.0453L50.8827 89.0406ZM39.4058 70.5248L58.4322 68.6445L43.8438 77.6829L39.4058 70.52V70.5248ZM68.0099 64.111C66.9409 66.855 66.3492 69.8376 66.3492 72.9585C66.3492 74.6001 66.5162 76.2083 66.8264 77.7593L50.2576 88.0289L44.4738 78.6994L68.0099 64.111ZM93.0253 48.6064L110.844 37.5637L116.528 46.9505L105.757 53.6267C102.169 50.8445 97.7926 49.0407 93.0253 48.6064ZM90.9256 48.5062C90.8826 48.5062 90.8445 48.5062 90.8015 48.5062C81.1809 48.5062 72.844 54.0944 68.8545 62.1879L60.6942 67.2463C60.6608 67.2463 60.6322 67.232 60.594 67.2368L40.847 69.1886L105.667 29.0121L110.229 36.5473L90.9304 48.511L90.9256 48.5062ZM38.1889 70.8302L54.6861 97.4443L51.045 99.7015L34.5478 73.0874L38.1889 70.8302ZM57.0674 95.9697L67.2845 79.6586C68.0814 82.4455 69.3556 85.032 71.0211 87.3226L57.0674 95.9745V95.9697ZM99.4915 100.265H82.1115V95.8122C84.8125 96.843 87.7426 97.4109 90.8015 97.4109C93.8604 97.4109 96.7905 96.843 99.4915 95.8122V100.265ZM106.736 54.4236L117.148 47.9717L121.887 55.7932L112.472 61.6295C111.026 58.876 109.074 56.4375 106.736 54.4236ZM122.899 55.1633L117.983 47.0459C117.974 46.96 117.95 46.8741 117.902 46.7978C117.855 46.7214 117.793 46.6642 117.726 46.6164L106.678 28.3726L110.281 26.1393L126.778 52.7534L122.899 55.1585V55.1633ZM128.778 53.6076L132.572 51.2549L133.545 52.825L129.747 55.1776L128.773 53.6076H128.778ZM116.643 25.5523L117.616 27.1223L113.822 29.475L112.849 27.905L116.643 25.5523ZM112.219 26.8933L111.245 25.3233L115.039 22.9706L116.013 24.5406L112.219 26.8933ZM118.246 28.1388L119.219 29.7088L115.426 32.0615L114.452 30.4915L118.246 28.1388ZM119.849 30.7253L120.823 32.2953L117.029 34.648L116.056 33.0779L119.849 30.7253ZM121.453 33.3118L122.426 34.8818L118.632 37.2345L117.659 35.6644L121.453 33.3118ZM123.056 35.8983L124.03 37.4683L120.236 39.8209L119.262 38.2509L123.056 35.8983ZM124.66 38.4848L125.633 40.0548L121.835 42.4074L120.861 40.8374L124.66 38.4848ZM126.263 41.0712L127.237 42.6413L123.443 44.9939L122.469 43.4239L126.263 41.0712ZM127.867 43.6577L128.84 45.2278L125.046 47.5804L124.073 46.0104L127.871 43.6577H127.867ZM129.47 46.2442L130.348 47.6615L126.549 50.0142L125.671 48.5969L129.465 46.2442H129.47ZM114.419 21.9589L110.625 24.3116L109.651 22.7415L113.445 20.3889L114.419 21.9589ZM127.184 51.0259L130.983 48.6732L131.956 50.2433L128.158 52.5959L127.184 51.0259ZM112.252 18.4609L112.815 19.3724L109.021 21.7251L108.458 20.8136L112.252 18.4609ZM130.749 56.7763L130.391 56.1989L134.185 53.8462L134.543 54.4236L130.749 56.7763ZM154.614 33.9512L158.408 31.5986L159.382 33.1686L155.588 35.5213L154.614 33.9512ZM153.984 32.9396L153.106 31.5222L156.9 29.1696L157.778 30.5869L153.984 32.9396ZM152.476 30.5105L151.503 28.9405L155.297 26.5879L156.27 28.1579L152.476 30.5105ZM150.873 27.9241L149.899 26.354L153.693 24.0014L154.667 25.5714L150.873 27.9241ZM149.269 25.3376L148.296 23.7675L152.09 21.4149L153.063 22.9849L149.269 25.3376ZM147.666 22.7511L146.693 21.1811L150.486 18.8284L151.46 20.3984L147.666 22.7511ZM146.063 20.1646L145.089 18.5946L148.883 16.2419L149.856 17.8119L146.063 20.1646ZM144.459 17.5781L143.486 16.0081L147.279 13.6554L148.253 15.2255L144.459 17.5781ZM142.856 14.9916L141.882 13.4216L145.676 11.0689L146.65 12.639L142.856 14.9916ZM141.252 12.4051L140.279 10.8351L144.073 8.48245L145.046 10.0525L141.252 12.4051ZM139.649 9.81864L138.675 8.24862L142.469 5.89596L143.443 7.46599L139.649 9.81864ZM141.839 4.8795L138.045 7.23215L137.072 5.66213L140.866 3.30947L141.839 4.8795ZM156.208 36.533L160.002 34.1803L160.975 35.7503L157.182 38.103L156.208 36.533ZM158.279 14.7721C161.739 20.3555 162.717 27.0221 161.08 33.6554L142.612 3.85827C149.284 5.34717 154.819 9.18872 158.279 14.7673V14.7721ZM139.706 1.43403L140.241 2.29301L136.447 4.64567L135.912 3.78669L139.706 1.43403ZM138.943 49.3318L118.761 16.7668L131.503 8.86899L151.684 41.4339L138.943 49.3318ZM117.745 17.3968L137.926 49.9617L134.648 51.9946L114.466 19.4297L117.745 17.3968ZM152.701 40.804L132.519 8.23907L135.798 6.20615L155.979 38.7711L152.701 40.804ZM158.203 39.7494L157.812 39.1194L161.605 36.7668L161.997 37.3967L158.203 39.7494Z" fill="#00BAC9"/>
<path d="M90.7442 53.1256C86.8884 53.1256 83.2902 54.2375 80.2456 56.1464C80.2408 56.1464 80.236 56.1559 80.2312 56.1559C78.4846 57.2535 76.9194 58.6183 75.5928 60.1884C75.5832 60.1979 75.5737 60.1979 75.5641 60.2074C75.545 60.2265 75.5403 60.2456 75.5259 60.2647C72.6531 63.7054 70.9208 68.1292 70.9208 72.949C70.9208 77.7688 72.6531 82.1974 75.5259 85.6333C75.5403 85.6524 75.545 85.6715 75.5641 85.6906C75.5737 85.7001 75.5832 85.7001 75.5928 85.7096C76.9003 87.2606 78.4465 88.6111 80.1692 89.6991C80.1978 89.7182 80.2217 89.7373 80.2503 89.7516C83.295 91.6605 86.8931 92.7724 90.749 92.7724C101.677 92.7724 110.572 83.8819 110.572 72.949C110.572 62.0161 101.682 53.1256 90.749 53.1256H90.7442ZM90.7442 91.5746C89.6753 91.5746 88.6302 91.4791 87.6089 91.3073L105.547 73.3689C105.605 73.3117 105.648 73.2496 105.676 73.1781C105.705 73.1065 105.724 73.0301 105.724 72.949C105.724 72.8679 105.71 72.7915 105.676 72.7199C105.648 72.6484 105.6 72.5815 105.547 72.5291L87.6089 54.5907C88.6302 54.4189 89.6753 54.3234 90.7442 54.3234C101.014 54.3234 109.375 62.6794 109.375 72.9538C109.375 83.2281 101.019 91.5841 90.7442 91.5841V91.5746ZM86.2155 91.0162C84.5166 90.5915 82.9132 89.9282 81.4338 89.074L96.9623 73.5455H103.686L86.2155 91.0162ZM96.9623 72.3525L81.4338 56.824C82.9132 55.965 84.5166 55.3065 86.2107 54.8818L103.686 72.3525H96.9623ZM88.549 72.3525L76.8049 60.6083C77.8595 59.4153 79.0669 58.3606 80.3935 57.4682L95.2777 72.3525H88.549ZM87.4562 72.949L76.0366 84.3687C73.5789 81.2095 72.1091 77.2487 72.1091 72.949C72.1091 68.6493 73.5789 64.6885 76.0366 61.5293L87.4562 72.949ZM76.8001 85.2897L88.5443 73.5455H95.2682L80.3839 88.4297C79.0573 87.5421 77.8547 86.4827 76.8001 85.2897Z" fill="#00BAC9"/>
</g>
<defs>
<clipPath id="clip0_100_392">
<rect width="166.07" height="178" fill="white"/>
</clipPath>
</defs>
</svg>
