<svg width="122" height="122" viewBox="0 0 122 122" fill="none" xmlns="http://www.w3.org/2000/svg">
<g clip-path="url(#clip0_2002_65)">
<path d="M60.9089 0C27.3238 0 0 27.3238 0 60.9088C0 94.4939 27.3238 121.818 60.9089 121.818C94.4939 121.818 121.818 94.4939 121.818 60.9088C121.818 27.3238 94.4939 0 60.9089 0ZM60.9089 120.941C27.8076 120.941 0.876437 94.0101 0.876437 60.9088C0.876437 27.8076 27.8076 0.876437 60.9089 0.876437C94.0101 0.876437 120.941 27.8076 120.941 60.9088C120.941 94.0101 94.0101 120.941 60.9089 120.941Z" fill="#00BAC9"/>
<path d="M75.8328 112.699C74.725 113.018 73.5926 113.306 72.4638 113.551C72.2289 113.604 72.0782 113.835 72.1307 114.074C72.1763 114.277 72.3551 114.417 72.5584 114.417C72.59 114.417 72.6216 114.417 72.6531 114.407C73.7995 114.158 74.9529 113.863 76.0782 113.541C76.3096 113.474 76.4463 113.232 76.3797 112.997C76.3131 112.766 76.0712 112.633 75.8363 112.696L75.8328 112.699Z" fill="#00BAC9"/>
<path d="M88.5411 107.178C87.5525 107.77 86.5324 108.338 85.5052 108.864C85.2913 108.976 85.2037 109.239 85.3159 109.453C85.393 109.604 85.5472 109.691 85.705 109.691C85.7716 109.691 85.8417 109.677 85.9048 109.642C86.946 109.106 87.9872 108.531 88.9899 107.928C89.1967 107.805 89.2668 107.535 89.1406 107.328C89.0144 107.122 88.748 107.051 88.5411 107.178Z" fill="#00BAC9"/>
<path d="M99.4265 98.5921C98.6202 99.416 97.7753 100.226 96.9164 100.997C96.7376 101.158 96.72 101.435 96.8848 101.618C96.9725 101.712 97.0917 101.761 97.2109 101.761C97.316 101.761 97.4212 101.723 97.5053 101.649C98.3783 100.864 99.2372 100.044 100.054 99.2056C100.222 99.0339 100.219 98.7569 100.047 98.5851C99.8752 98.4168 99.5983 98.4203 99.4265 98.5921Z" fill="#00BAC9"/>
<path d="M17.2202 92.4536C17.0765 92.2572 16.803 92.2117 16.6067 92.3554C16.4104 92.4956 16.3648 92.7726 16.5086 92.9689C17.1957 93.919 17.9214 94.8585 18.6681 95.763C18.7557 95.8682 18.8784 95.9207 19.0047 95.9207C19.1028 95.9207 19.201 95.8892 19.2851 95.8191C19.4709 95.6648 19.499 95.3879 19.3447 95.2021C18.6085 94.3116 17.8933 93.3861 17.2202 92.4536Z" fill="#00BAC9"/>
<path d="M82.3675 110.35C81.3088 110.81 80.2255 111.241 79.1422 111.63C78.9144 111.711 78.7952 111.963 78.8793 112.191C78.9424 112.37 79.1107 112.482 79.293 112.482C79.3421 112.482 79.3911 112.475 79.4402 112.457C80.541 112.061 81.6453 111.623 82.7181 111.157C82.939 111.059 83.0406 110.803 82.946 110.582C82.8478 110.361 82.5919 110.259 82.371 110.354L82.3675 110.35Z" fill="#00BAC9"/>
<path d="M94.259 103.234C93.351 103.949 92.4115 104.643 91.4649 105.299C91.2651 105.435 91.216 105.709 91.3528 105.909C91.4369 106.031 91.5736 106.098 91.7138 106.098C91.798 106.098 91.8856 106.073 91.9628 106.021C92.9268 105.358 93.8804 104.65 94.8024 103.924C94.9917 103.774 95.0233 103.5 94.876 103.307C94.7253 103.118 94.4518 103.086 94.259 103.234Z" fill="#00BAC9"/>
<path d="M6.66092 63.7941C6.90282 63.7836 7.08862 63.5767 7.0781 63.3383C7.04305 62.5355 7.02552 61.7187 7.02552 60.9124C7.02552 60.5618 7.02552 60.2112 7.03603 59.8641C7.03954 59.6222 6.84672 59.4224 6.60483 59.4189C6.36293 59.4189 6.1631 59.6082 6.1596 59.8501C6.15259 60.2042 6.14908 60.5618 6.14908 60.9159C6.14908 61.7362 6.16661 62.5671 6.20517 63.3839C6.21569 63.6188 6.40851 63.8011 6.64339 63.8011H6.66443L6.66092 63.7941Z" fill="#00BAC9"/>
<path d="M7.83184 70.2411C7.63201 69.1053 7.47075 67.9484 7.34454 66.7985C7.32 66.5566 7.10264 66.3813 6.86075 66.4094C6.61885 66.4374 6.44707 66.6513 6.47161 66.8932C6.59782 68.0606 6.76609 69.2385 6.96592 70.3884C7.00448 70.6022 7.18678 70.753 7.39713 70.753C7.42167 70.753 7.44621 70.753 7.47425 70.746C7.71264 70.7039 7.8704 70.476 7.83184 70.2376V70.2411Z" fill="#00BAC9"/>
<path d="M26.7173 102.557C26.5315 102.403 26.2545 102.431 26.1003 102.617C25.946 102.803 25.9741 103.079 26.1599 103.234C27.0679 103.977 28.0074 104.703 28.961 105.39C29.0381 105.446 29.1293 105.474 29.2169 105.474C29.3536 105.474 29.4868 105.411 29.5745 105.292C29.7147 105.095 29.6726 104.822 29.4763 104.678C28.5403 104.005 27.6113 103.29 26.7208 102.557H26.7173Z" fill="#00BAC9"/>
<path d="M69.0492 114.182C67.9098 114.354 66.7494 114.494 65.5995 114.592C65.3576 114.613 65.1788 114.824 65.1999 115.066C65.2209 115.294 65.4102 115.465 65.6346 115.465C65.6486 115.465 65.6591 115.465 65.6732 115.465C66.8441 115.364 68.022 115.223 69.1789 115.048C69.4173 115.013 69.5821 114.789 69.547 114.55C69.512 114.312 69.2876 114.147 69.0492 114.182Z" fill="#00BAC9"/>
<path d="M8.54 73.6452C8.48391 73.4103 8.24552 73.2666 8.01063 73.3227C7.77575 73.3788 7.63201 73.6172 7.6881 73.8521C7.96506 74.9914 8.28058 76.1378 8.63115 77.2561C8.69075 77.4419 8.86253 77.5647 9.04833 77.5647C9.0904 77.5647 9.13598 77.5576 9.17805 77.5436C9.40943 77.47 9.53914 77.2246 9.46552 76.9932C9.12195 75.8924 8.80994 74.7671 8.53649 73.6452H8.54Z" fill="#00BAC9"/>
<path d="M13.5217 86.5779C13.406 86.3641 13.1395 86.287 12.9292 86.4026C12.7153 86.5183 12.6382 86.7848 12.7539 86.9951C13.3113 88.0223 13.9108 89.0495 14.5383 90.0416C14.6225 90.1748 14.7627 90.2449 14.9099 90.2449C14.9906 90.2449 15.0712 90.2239 15.1413 90.1783C15.3447 90.0486 15.4078 89.7787 15.278 89.5753C14.6645 88.5972 14.0721 87.5876 13.5252 86.5779H13.5217Z" fill="#00BAC9"/>
<path d="M21.6445 97.8068C21.4797 97.6316 21.2028 97.621 21.024 97.7893C20.8487 97.9541 20.8382 98.231 21.0064 98.4098C21.8093 99.2617 22.6506 100.103 23.506 100.906C23.5902 100.987 23.6989 101.025 23.804 101.025C23.9197 101.025 24.0389 100.98 24.123 100.885C24.2878 100.71 24.2808 100.429 24.102 100.264C23.2606 99.4756 22.4298 98.6482 21.641 97.8103L21.6445 97.8068Z" fill="#00BAC9"/>
<path d="M10.6119 80.2781C10.5243 80.0537 10.2718 79.938 10.044 80.0257C9.8196 80.1133 9.70391 80.3657 9.79155 80.5936C10.2122 81.6874 10.675 82.7777 11.1658 83.8434C11.2394 84.0047 11.3972 84.0994 11.5655 84.0994C11.6286 84.0994 11.6882 84.0853 11.7478 84.0573C11.9686 83.9556 12.0633 83.6962 11.9616 83.4753C11.4778 82.4306 11.0221 81.3544 10.6084 80.2781H10.6119Z" fill="#00BAC9"/>
<path d="M41.6938 111.265C40.6141 110.855 39.5343 110.399 38.4861 109.919C38.2652 109.818 38.0058 109.916 37.9041 110.137C37.8025 110.357 37.9006 110.617 38.1215 110.719C39.1907 111.209 40.288 111.669 41.3818 112.086C41.4344 112.107 41.487 112.114 41.5396 112.114C41.7149 112.114 41.8832 112.005 41.9498 111.833C42.0374 111.609 41.9217 111.353 41.6974 111.269L41.6938 111.265Z" fill="#00BAC9"/>
<path d="M35.3695 108.366C34.3563 107.819 33.3432 107.23 32.3615 106.617C32.1582 106.487 31.8848 106.55 31.7586 106.757C31.6288 106.964 31.692 107.234 31.8988 107.36C32.8979 107.984 33.9251 108.584 34.9558 109.137C35.0224 109.172 35.0925 109.19 35.1626 109.19C35.3169 109.19 35.4711 109.106 35.5483 108.959C35.664 108.745 35.5833 108.478 35.3695 108.366Z" fill="#00BAC9"/>
<path d="M55.184 114.491C54.0376 114.368 52.8772 114.21 51.7413 114.014C51.5029 113.975 51.2751 114.133 51.2365 114.371C51.1944 114.61 51.3557 114.838 51.5941 114.876C52.7475 115.076 53.9254 115.237 55.0928 115.36C55.1103 115.36 55.1244 115.36 55.1384 115.36C55.3593 115.36 55.5486 115.192 55.5731 114.967C55.5976 114.726 55.4224 114.512 55.184 114.487V114.491Z" fill="#00BAC9"/>
<path d="M20.407 25.1467C20.5261 25.1467 20.6488 25.0976 20.733 24.9995C21.5007 24.1406 22.3106 23.2922 23.1309 22.4824C23.3027 22.3141 23.3062 22.0336 23.1344 21.8618C22.9661 21.6901 22.6892 21.6866 22.5139 21.8548C21.676 22.6787 20.8557 23.5376 20.0739 24.4105C19.9126 24.5893 19.9267 24.8698 20.109 25.031C20.1931 25.1047 20.2983 25.1432 20.3999 25.1432L20.407 25.1467Z" fill="#00BAC9"/>
<path d="M6.73805 56.7896C6.73805 56.7896 6.76259 56.7896 6.7731 56.7896C6.99747 56.7896 7.19029 56.6178 7.20782 56.3864C7.30247 55.233 7.4392 54.0726 7.60747 52.9333C7.64253 52.6949 7.47776 52.4705 7.23937 52.4355C6.99747 52.4004 6.77661 52.5652 6.74155 52.8036C6.56977 53.9605 6.43305 55.1419 6.33488 56.3128C6.31385 56.5547 6.49264 56.7651 6.73454 56.7861L6.73805 56.7896Z" fill="#00BAC9"/>
<path d="M62.1253 114.778C60.9755 114.803 59.8045 114.792 58.6476 114.747C58.4128 114.729 58.2024 114.925 58.1919 115.167C58.1814 115.409 58.3707 115.613 58.6126 115.623C59.3733 115.655 60.1446 115.669 60.9089 115.669C61.3225 115.669 61.7327 115.665 62.1429 115.655C62.3848 115.648 62.5776 115.448 62.5706 115.206C62.5636 114.964 62.3567 114.768 62.1218 114.778H62.1253Z" fill="#00BAC9"/>
<path d="M48.3372 113.316C47.2154 113.05 46.0901 112.741 44.9857 112.398C44.7544 112.324 44.509 112.457 44.4388 112.689C44.3687 112.92 44.4984 113.166 44.7298 113.236C45.8517 113.583 46.998 113.895 48.1374 114.168C48.1725 114.175 48.2075 114.179 48.2391 114.179C48.4389 114.179 48.6177 114.042 48.6633 113.842C48.7194 113.607 48.5756 113.369 48.3372 113.313V113.316Z" fill="#00BAC9"/>
<path d="M7.71264 49.8517C7.7442 49.8587 7.77575 49.8622 7.80379 49.8622C8.00713 49.8622 8.18592 49.722 8.23149 49.5152C8.47339 48.3863 8.75736 47.2505 9.07287 46.1426C9.13948 45.9113 9.00276 45.6659 8.77138 45.6028C8.54 45.5361 8.2946 45.6729 8.23149 45.9043C7.91247 47.0331 7.62149 48.183 7.37609 49.3329C7.32351 49.5713 7.47425 49.8026 7.71264 49.8552V49.8517Z" fill="#00BAC9"/>
<path d="M12.2982 36.6351C12.3613 36.6666 12.4314 36.6841 12.498 36.6841C12.6557 36.6841 12.81 36.5965 12.8871 36.4457C13.413 35.4186 13.9774 34.3914 14.5699 33.3993C14.6926 33.1924 14.626 32.9225 14.4191 32.7998C14.2123 32.6771 13.9424 32.7437 13.8197 32.9505C13.2202 33.9602 12.6452 35.0014 12.1124 36.0461C12.0037 36.2599 12.0878 36.5264 12.3052 36.6351H12.2982Z" fill="#00BAC9"/>
<path d="M9.57419 43.0997C9.62328 43.1172 9.67236 43.1242 9.72144 43.1242C9.90023 43.1242 10.072 43.012 10.1351 42.8332C10.5207 41.7464 10.952 40.6561 11.4077 39.5939C11.5024 39.373 11.4007 39.1136 11.1798 39.019C10.959 38.9243 10.6995 39.026 10.6049 39.2468C10.1386 40.3266 9.70391 41.4344 9.31126 42.5387C9.23063 42.7666 9.34983 43.019 9.5777 43.0997H9.57419Z" fill="#00BAC9"/>
<path d="M112.654 45.8236C112.71 46.0164 112.885 46.1391 113.074 46.1391C113.116 46.1391 113.155 46.1321 113.197 46.1216C113.428 46.055 113.562 45.8096 113.495 45.5782C113.169 44.4529 112.797 43.324 112.398 42.2197C112.314 41.9918 112.065 41.8761 111.837 41.9568C111.609 42.0409 111.493 42.2898 111.574 42.5177C111.967 43.601 112.331 44.7123 112.654 45.8201V45.8236Z" fill="#00BAC9"/>
<path d="M98.4729 22.279C98.5571 22.3632 98.6693 22.4017 98.7779 22.4017C98.8866 22.4017 99.0058 22.3561 99.0935 22.2685C99.2617 22.0932 99.2582 21.8163 99.0864 21.648C98.2451 20.8312 97.3651 20.0283 96.4747 19.2676C96.2924 19.1098 96.0154 19.1309 95.8576 19.3167C95.6999 19.5025 95.7209 19.7759 95.9067 19.9337C96.7832 20.6839 97.6491 21.4727 98.4764 22.2755L98.4729 22.279Z" fill="#00BAC9"/>
<path d="M108.377 87.3492C108.166 87.23 107.9 87.3036 107.781 87.514C107.209 88.5166 106.599 89.5157 105.965 90.4798C105.831 90.6832 105.888 90.9531 106.091 91.0863C106.165 91.1354 106.249 91.1599 106.333 91.1599C106.477 91.1599 106.617 91.0898 106.701 90.9636C107.346 89.982 107.966 88.9688 108.548 87.9487C108.668 87.7383 108.594 87.4719 108.384 87.3492H108.377Z" fill="#00BAC9"/>
<path d="M113.558 74.3499C113.323 74.2868 113.085 74.427 113.022 74.6619C112.727 75.7802 112.394 76.8986 112.03 77.9924C111.953 78.2237 112.075 78.4691 112.307 78.5463C112.352 78.5603 112.398 78.5673 112.447 78.5673C112.629 78.5673 112.801 78.4516 112.864 78.2693C113.236 77.158 113.576 76.0186 113.874 74.8828C113.937 74.6479 113.797 74.4095 113.562 74.3464L113.558 74.3499Z" fill="#00BAC9"/>
<path d="M90.3396 15.7653C91.3037 16.3964 92.2643 17.066 93.1898 17.7601C93.2669 17.8197 93.3616 17.8478 93.4527 17.8478C93.5859 17.8478 93.7191 17.7882 93.8033 17.6725C93.947 17.4797 93.9084 17.2027 93.7156 17.059C92.7761 16.3543 91.8015 15.6742 90.8199 15.0326C90.6165 14.8994 90.3466 14.9555 90.2134 15.1589C90.0802 15.3622 90.1363 15.6321 90.3396 15.7653Z" fill="#00BAC9"/>
<path d="M71.1106 7.9896C72.2464 8.20695 73.3858 8.46287 74.5006 8.75385C74.5392 8.76437 74.5743 8.76787 74.6128 8.76787C74.8091 8.76787 74.9844 8.63816 75.037 8.43833C75.0966 8.20345 74.9564 7.96506 74.7215 7.90546C73.5891 7.61098 72.4287 7.34805 71.2753 7.12719C71.037 7.08161 70.8091 7.23586 70.7635 7.47425C70.7179 7.71264 70.8722 7.94052 71.1106 7.98609V7.9896Z" fill="#00BAC9"/>
<path d="M84.2852 12.3472C85.3264 12.8486 86.3641 13.392 87.3667 13.9599C87.4333 13.9984 87.5105 14.016 87.5806 14.016C87.7348 14.016 87.8821 13.9353 87.9627 13.7916C88.0819 13.5813 88.0083 13.3148 87.7979 13.1956C86.7778 12.6172 85.7225 12.0668 84.6638 11.5584C84.4464 11.4533 84.1835 11.5444 84.0783 11.7618C83.9732 11.9791 84.0643 12.2421 84.2817 12.3472H84.2852Z" fill="#00BAC9"/>
<path d="M114.841 67.4646C114.599 67.4366 114.382 67.6048 114.35 67.8432C114.203 68.9896 114.017 70.143 113.797 71.2753C113.751 71.5137 113.905 71.7416 114.144 71.7907C114.172 71.7977 114.2 71.7977 114.228 71.7977C114.435 71.7977 114.617 71.654 114.659 71.4436C114.883 70.2937 115.073 69.1193 115.223 67.9554C115.255 67.717 115.083 67.4961 114.845 67.4646H114.841Z" fill="#00BAC9"/>
<path d="M77.8346 9.73897C78.9319 10.1001 80.0292 10.5032 81.102 10.9379C81.1545 10.959 81.2106 10.9695 81.2667 10.9695C81.4385 10.9695 81.6033 10.8643 81.6734 10.696C81.7645 10.4717 81.6559 10.2157 81.4315 10.1246C80.3412 9.68287 79.2229 9.2727 78.1115 8.9046C77.8802 8.82747 77.6348 8.95368 77.5576 9.18155C77.4805 9.41293 77.6067 9.65833 77.8346 9.73546V9.73897Z" fill="#00BAC9"/>
<path d="M107.094 33.1363C107.174 33.273 107.321 33.3467 107.469 33.3467C107.546 33.3467 107.623 33.3256 107.693 33.2836C107.9 33.1574 107.966 32.8909 107.844 32.6806C107.241 31.6779 106.592 30.6823 105.926 29.7182C105.789 29.5184 105.516 29.4693 105.316 29.6095C105.116 29.7463 105.067 30.0197 105.207 30.2195C105.867 31.1661 106.501 32.1477 107.097 33.1363H107.094Z" fill="#00BAC9"/>
<path d="M100.916 24.1616C100.738 24.3229 100.724 24.5998 100.885 24.7821C101.66 25.6375 102.413 26.5315 103.132 27.4325C103.22 27.5411 103.346 27.5972 103.476 27.5972C103.57 27.5972 103.668 27.5657 103.749 27.5026C103.938 27.3518 103.97 27.0749 103.819 26.8856C103.09 25.9671 102.322 25.0626 101.537 24.1932C101.376 24.0144 101.099 24.0003 100.916 24.1616Z" fill="#00BAC9"/>
<path d="M110.284 39.2994C110.357 39.4642 110.515 39.5624 110.687 39.5624C110.747 39.5624 110.806 39.5518 110.862 39.5238C111.083 39.4256 111.185 39.1697 111.087 38.9453C110.617 37.8726 110.105 36.8033 109.565 35.7621C109.453 35.5483 109.19 35.4641 108.976 35.5728C108.762 35.685 108.678 35.9479 108.787 36.1618C109.316 37.1855 109.821 38.2407 110.284 39.2959V39.2994Z" fill="#00BAC9"/>
<path d="M115.23 60.4706C114.989 60.4706 114.792 60.6669 114.792 60.9088C114.792 62.0657 114.754 63.2332 114.684 64.383C114.669 64.6249 114.852 64.8318 115.094 64.8493C115.104 64.8493 115.111 64.8493 115.122 64.8493C115.35 64.8493 115.542 64.6705 115.56 64.4391C115.634 63.2717 115.672 62.0833 115.672 60.9088C115.672 60.6669 115.476 60.4706 115.234 60.4706H115.23Z" fill="#00BAC9"/>
<path d="M110.82 81.2562C110.382 82.329 109.905 83.3982 109.4 84.4324C109.295 84.6498 109.386 84.9127 109.604 85.0179C109.667 85.0494 109.73 85.0634 109.796 85.0634C109.958 85.0634 110.116 84.9723 110.189 84.818C110.701 83.7628 111.188 82.676 111.63 81.5892C111.721 81.3649 111.612 81.109 111.388 81.0178C111.164 80.9267 110.908 81.0318 110.817 81.2562H110.82Z" fill="#00BAC9"/>
<path d="M114.578 56.0569C114.68 57.2033 114.747 58.3707 114.775 59.5276C114.782 59.766 114.974 59.9553 115.213 59.9553C115.216 59.9553 115.22 59.9553 115.223 59.9553C115.465 59.9483 115.658 59.7484 115.651 59.5065C115.623 58.3321 115.553 57.1472 115.451 55.9798C115.43 55.7379 115.216 55.5591 114.974 55.5836C114.733 55.6047 114.554 55.8185 114.578 56.0604V56.0569Z" fill="#00BAC9"/>
<path d="M114.158 52.6072C114.193 52.8246 114.378 52.9788 114.589 52.9788C114.61 52.9788 114.634 52.9788 114.655 52.9753C114.894 52.9368 115.059 52.7159 115.02 52.474C114.841 51.3136 114.62 50.1462 114.368 49.0033C114.315 48.7684 114.081 48.6177 113.846 48.6703C113.611 48.7229 113.46 48.9578 113.513 49.1926C113.761 50.318 113.979 51.4679 114.154 52.6072H114.158Z" fill="#00BAC9"/>
<path d="M64.2183 7.12368C65.3717 7.19379 66.5356 7.30247 67.6784 7.44621C67.696 7.44621 67.717 7.44621 67.7345 7.44621C67.9519 7.44621 68.1412 7.28494 68.1692 7.06408C68.2008 6.82218 68.029 6.60483 67.7906 6.57328C66.6302 6.42603 65.4453 6.31736 64.2744 6.24724C64.029 6.23322 63.8256 6.41552 63.8116 6.65741C63.7976 6.89931 63.9799 7.10615 64.2218 7.12017L64.2183 7.12368Z" fill="#00BAC9"/>
<path d="M30.9838 16.0072C31.0679 16.0072 31.1521 15.9827 31.2257 15.9336C32.1898 15.2956 33.1819 14.6856 34.1845 14.1106C34.3949 13.9914 34.4685 13.7215 34.3458 13.5111C34.2266 13.3008 33.9567 13.2272 33.7463 13.3499C32.7297 13.9318 31.72 14.5559 30.7419 15.2009C30.5386 15.3341 30.486 15.6076 30.6192 15.8074C30.7033 15.9336 30.8436 16.0037 30.9838 16.0037V16.0072Z" fill="#00BAC9"/>
<path d="M37.0557 12.5295C37.1188 12.5295 37.1855 12.5155 37.2486 12.484C38.2828 11.9756 39.3485 11.4988 40.4143 11.0606C40.6386 10.9695 40.7438 10.7136 40.6526 10.4892C40.5615 10.2648 40.3056 10.1597 40.0812 10.2508C38.9979 10.696 37.9182 11.1833 36.8629 11.6987C36.6456 11.8038 36.5544 12.0668 36.6631 12.2841C36.7402 12.4384 36.8945 12.5295 37.0557 12.5295Z" fill="#00BAC9"/>
<path d="M25.4026 20.2352C25.5043 20.2352 25.606 20.2001 25.6901 20.13C26.563 19.3763 27.471 18.6401 28.3895 17.9424C28.5824 17.7952 28.6209 17.5217 28.4737 17.3289C28.3264 17.1361 28.053 17.0975 27.8602 17.2448C26.9241 17.9529 26.0021 18.6997 25.1152 19.4674C24.9329 19.6252 24.9118 19.9021 25.0696 20.0844C25.1572 20.1861 25.2799 20.2352 25.4026 20.2352Z" fill="#00BAC9"/>
<path d="M50.297 8.06322C50.325 8.06322 50.353 8.06322 50.3811 8.05621C51.5099 7.83184 52.6633 7.64253 53.8097 7.49178C54.0481 7.46023 54.2199 7.23937 54.1883 7.00098C54.1568 6.76259 53.9359 6.59431 53.6975 6.62236C52.5336 6.77661 51.3592 6.96943 50.2128 7.1973C49.9744 7.24287 49.8202 7.47425 49.8693 7.71264C49.9113 7.92299 50.0936 8.06672 50.297 8.06672V8.06322Z" fill="#00BAC9"/>
<path d="M57.2418 7.14822C57.2418 7.14822 57.2629 7.14822 57.2699 7.14822C58.4198 7.07109 59.5872 7.03253 60.7441 7.02902C60.986 7.02902 61.1823 6.8327 61.1823 6.5908C61.1823 6.34891 60.986 6.15259 60.7441 6.15259C59.5697 6.15259 58.3812 6.19816 57.2138 6.27529C56.9719 6.29282 56.7896 6.49965 56.8071 6.74155C56.8211 6.97293 57.014 7.15172 57.2453 7.15172L57.2418 7.14822Z" fill="#00BAC9"/>
<path d="M43.5309 9.86517C43.5764 9.86517 43.6255 9.85816 43.6711 9.84063C44.7649 9.47253 45.8832 9.13247 46.998 8.83799C47.2329 8.77488 47.3697 8.53649 47.3101 8.30161C47.247 8.06672 47.0051 7.93 46.7737 7.9896C45.6413 8.29109 44.502 8.63466 43.3906 9.00977C43.1628 9.0869 43.0365 9.33581 43.1172 9.56368C43.1803 9.74598 43.3486 9.86167 43.5309 9.86167V9.86517Z" fill="#00BAC9"/>
<path d="M60.4706 97.9401C60.4706 98.182 60.667 98.3783 60.9089 98.3783C61.1507 98.3783 61.3471 98.182 61.3471 97.9401V94.4343C61.3471 94.1924 61.1507 93.9961 60.9089 93.9961C60.667 93.9961 60.4706 94.1924 60.4706 94.4343V97.9401Z" fill="#00BAC9"/>
<path d="M60.4706 10.2964V13.8021C60.4706 14.044 60.667 14.2403 60.9089 14.2403C61.1507 14.2403 61.3471 14.044 61.3471 13.8021V10.2964C61.3471 10.0545 61.1507 9.85816 60.9089 9.85816C60.667 9.85816 60.4706 10.0545 60.4706 10.2964Z" fill="#00BAC9"/>
<path d="M60.4706 90.9286C60.4706 91.1705 60.667 91.3668 60.9089 91.3668C61.1507 91.3668 61.3471 91.1705 61.3471 90.9286V87.4228C61.3471 87.1809 61.1507 86.9846 60.9089 86.9846C60.667 86.9846 60.4706 87.1809 60.4706 87.4228V90.9286Z" fill="#00BAC9"/>
<path d="M61.3471 31.3309C61.3471 31.089 61.1507 30.8926 60.9089 30.8926C60.667 30.8926 60.4706 31.089 60.4706 31.3309V34.8366C60.4706 35.0785 60.667 35.2748 60.9089 35.2748C61.1507 35.2748 61.3471 35.0785 61.3471 34.8366V31.3309Z" fill="#00BAC9"/>
<path d="M60.9089 37.9041C60.667 37.9041 60.4706 38.1005 60.4706 38.3424V41.8481C60.4706 42.09 60.667 42.2863 60.9089 42.2863C61.1507 42.2863 61.3471 42.09 61.3471 41.8481V38.3424C61.3471 38.1005 61.1507 37.9041 60.9089 37.9041Z" fill="#00BAC9"/>
<path d="M60.9089 84.3553C61.1507 84.3553 61.3471 84.159 61.3471 83.9171V80.4113C61.3471 80.1694 61.1507 79.9731 60.9089 79.9731C60.667 79.9731 60.4706 80.1694 60.4706 80.4113V83.9171C60.4706 84.159 60.667 84.3553 60.9089 84.3553Z" fill="#00BAC9"/>
<path d="M61.3471 24.3194C61.3471 24.0775 61.1507 23.8811 60.9089 23.8811C60.667 23.8811 60.4706 24.0775 60.4706 24.3194V27.8251C60.4706 28.067 60.667 28.2633 60.9089 28.2633C61.1507 28.2633 61.3471 28.067 61.3471 27.8251V24.3194Z" fill="#00BAC9"/>
<path d="M60.4706 104.952C60.4706 105.193 60.667 105.39 60.9089 105.39C61.1507 105.39 61.3471 105.193 61.3471 104.952V101.446C61.3471 101.204 61.1507 101.008 60.9089 101.008C60.667 101.008 60.4706 101.204 60.4706 101.446V104.952Z" fill="#00BAC9"/>
<path d="M60.4706 111.963C60.4706 112.205 60.667 112.401 60.9089 112.401C61.1507 112.401 61.3471 112.205 61.3471 111.963V108.457C61.3471 108.215 61.1507 108.019 60.9089 108.019C60.667 108.019 60.4706 108.215 60.4706 108.457V111.963Z" fill="#00BAC9"/>
<path d="M61.3471 17.3079C61.3471 17.066 61.1507 16.8697 60.9089 16.8697C60.667 16.8697 60.4706 17.066 60.4706 17.3079V20.8136C60.4706 21.0555 60.667 21.2518 60.9089 21.2518C61.1507 21.2518 61.3471 21.0555 61.3471 20.8136V17.3079Z" fill="#00BAC9"/>
<path d="M26.7629 62.3848C27.0048 62.3848 27.2011 62.1884 27.2011 61.9465C27.2011 61.7047 27.0048 61.5083 26.7629 61.5083H23.2571C23.0152 61.5083 22.8189 61.7047 22.8189 61.9465C22.8189 62.1884 23.0152 62.3848 23.2571 62.3848H26.7629Z" fill="#00BAC9"/>
<path d="M19.7514 62.3848C19.9933 62.3848 20.1896 62.1884 20.1896 61.9465C20.1896 61.7047 19.9933 61.5083 19.7514 61.5083H16.2456C16.0037 61.5083 15.8074 61.7047 15.8074 61.9465C15.8074 62.1884 16.0037 62.3848 16.2456 62.3848H19.7514Z" fill="#00BAC9"/>
<path d="M8.79592 61.9465C8.79592 62.1884 8.99224 62.3848 9.23414 62.3848H12.7399C12.9818 62.3848 13.1781 62.1884 13.1781 61.9465C13.1781 61.7047 12.9818 61.5083 12.7399 61.5083H9.23414C8.99224 61.5083 8.79592 61.7047 8.79592 61.9465Z" fill="#00BAC9"/>
<path d="M33.7744 62.3848C34.0163 62.3848 34.2126 62.1884 34.2126 61.9465C34.2126 61.7047 34.0163 61.5083 33.7744 61.5083H30.2686C30.0267 61.5083 29.8304 61.7047 29.8304 61.9465C29.8304 62.1884 30.0267 62.3848 30.2686 62.3848H33.7744Z" fill="#00BAC9"/>
<path d="M40.7859 62.3848C41.0278 62.3848 41.2241 62.1884 41.2241 61.9465C41.2241 61.7047 41.0278 61.5083 40.7859 61.5083H37.2801C37.0382 61.5083 36.8419 61.7047 36.8419 61.9465C36.8419 62.1884 37.0382 62.3848 37.2801 62.3848H40.7859Z" fill="#00BAC9"/>
<path d="M84.9968 61.5083C84.7549 61.5083 84.5586 61.7047 84.5586 61.9465C84.5586 62.1884 84.7549 62.3848 84.9968 62.3848H88.5026C88.7445 62.3848 88.9408 62.1884 88.9408 61.9465C88.9408 61.7047 88.7445 61.5083 88.5026 61.5083H84.9968Z" fill="#00BAC9"/>
<path d="M92.0083 61.5083C91.7664 61.5083 91.5701 61.7047 91.5701 61.9465C91.5701 62.1884 91.7664 62.3848 92.0083 62.3848H95.5141C95.756 62.3848 95.9523 62.1884 95.9523 61.9465C95.9523 61.7047 95.756 61.5083 95.5141 61.5083H92.0083Z" fill="#00BAC9"/>
<path d="M105.593 61.9465C105.593 62.1884 105.789 62.3848 106.031 62.3848H109.537C109.779 62.3848 109.975 62.1884 109.975 61.9465C109.975 61.7047 109.779 61.5083 109.537 61.5083H106.031C105.789 61.5083 105.593 61.7047 105.593 61.9465Z" fill="#00BAC9"/>
<path d="M99.0198 61.5083C98.7779 61.5083 98.5816 61.7047 98.5816 61.9465C98.5816 62.1884 98.7779 62.3848 99.0198 62.3848H102.526C102.767 62.3848 102.964 62.1884 102.964 61.9465C102.964 61.7047 102.767 61.5083 102.526 61.5083H99.0198Z" fill="#00BAC9"/>
<path d="M105.19 96.6499L103.658 95.132C103.998 94.7078 104.331 94.2801 104.657 93.8524C104.804 93.6595 104.766 93.3861 104.569 93.2389C104.377 93.0916 104.1 93.1337 103.956 93.3265C103.654 93.7262 103.342 94.1223 103.03 94.5149L97.926 89.4562C102.659 83.3456 105.782 76.2009 107.041 68.4883C107.062 68.3621 107.027 68.2324 106.943 68.1342C106.859 68.036 106.736 67.9799 106.61 67.9799H102.753V66.3147C102.753 66.0728 102.557 65.8765 102.315 65.8765H78.1782C78.5007 64.7582 78.7145 63.5943 78.8127 62.3953H81.4911C81.733 62.3953 81.9293 62.199 81.9293 61.9571C81.9293 61.7152 81.733 61.5189 81.4911 61.5189H78.8618C78.8688 61.319 78.8758 61.1192 78.8758 60.9194C78.8758 59.8151 78.7706 58.7353 78.5778 57.6871H102.312C102.554 57.6871 102.75 57.4908 102.75 57.2489V55.4189H106.834C106.96 55.4189 107.08 55.3663 107.164 55.2716C107.248 55.177 107.286 55.0507 107.269 54.928C104.622 34.2441 88.3588 17.69 67.7275 14.6751C67.6013 14.6575 67.4751 14.6926 67.377 14.7767C67.2823 14.8609 67.2262 14.9801 67.2262 15.1098V18.9275H65.4418C65.1999 18.9275 65.0036 19.1239 65.0036 19.3657V43.4327C63.6854 43.1242 62.3182 42.9559 60.9089 42.9559C59.4995 42.9559 58.1288 43.1242 56.8141 43.4327V19.3517C56.8141 19.1098 56.6178 18.9135 56.3759 18.9135H54.6651V15.0852C54.6651 14.959 54.609 14.8363 54.5144 14.7557C54.4197 14.6716 54.29 14.6365 54.1638 14.654C43.1242 16.2491 33.3467 21.7041 26.2195 29.592L16.6979 25.599C16.5051 25.5183 16.2807 25.5849 16.165 25.7602C16.0493 25.9355 16.0703 26.1669 16.2211 26.3141L17.4832 27.5622C16.8767 28.351 16.2807 29.1573 15.7198 29.9776C15.583 30.1775 15.6321 30.4509 15.832 30.5876C15.9091 30.6402 15.9932 30.6648 16.0809 30.6648C16.2211 30.6648 16.3578 30.5982 16.442 30.4755C16.9748 29.7007 17.5357 28.9364 18.1107 28.1862L23.2291 33.259C18.619 39.5308 15.534 46.991 14.5278 55.0823C14.5138 55.2085 14.5524 55.3312 14.633 55.4259C14.7171 55.5205 14.8363 55.5731 14.9625 55.5731H19.1379V57.2383C19.1379 57.4802 19.3342 57.6766 19.5761 57.6766H43.2399C43.0471 58.7248 42.9419 59.8045 42.9419 60.9088C42.9419 62.6302 43.1908 64.2919 43.643 65.866H19.5761C19.3342 65.866 19.1379 66.0623 19.1379 66.3042V68.1342H15.236C15.1063 68.1342 14.9836 68.1903 14.9029 68.2884C14.8188 68.3866 14.7837 68.5163 14.8048 68.6425C16.4349 78.4376 21.066 87.3071 28.1967 94.2941C35.3379 101.292 44.3162 105.74 54.1603 107.164C54.1813 107.164 54.2024 107.167 54.2234 107.167C54.3286 107.167 54.4302 107.129 54.5109 107.062C54.6055 106.978 54.6616 106.859 54.6616 106.729V102.845H56.3724C56.6143 102.845 56.8106 102.648 56.8106 102.406V78.3955C58.1288 78.704 59.496 78.8723 60.9053 78.8723C62.3147 78.8723 63.6854 78.704 65.0001 78.3955V102.406C65.0001 102.648 65.1964 102.845 65.4383 102.845H67.2227V106.718C67.2227 106.845 67.2788 106.967 67.3734 107.051C67.4541 107.122 67.5557 107.157 67.6609 107.157C67.682 107.157 67.703 107.157 67.724 107.153C77.5822 105.712 86.5639 101.235 93.6981 94.2135C94.0417 93.8769 94.3712 93.5333 94.7007 93.1863L101.712 96.1276C101.632 96.3029 101.663 96.5097 101.817 96.6429C101.902 96.713 102.003 96.7481 102.101 96.7481C102.224 96.7481 102.347 96.6955 102.434 96.5974C102.469 96.5588 102.501 96.5167 102.536 96.4747L104.748 97.4037C104.804 97.4282 104.86 97.4387 104.916 97.4387H104.924C105.165 97.4387 105.362 97.2424 105.362 97.0005C105.362 96.8533 105.292 96.7271 105.183 96.6464L105.19 96.6499ZM43.8183 60.9088C43.8183 51.4854 51.4854 43.8183 60.9089 43.8183C70.3323 43.8183 77.9994 51.4854 77.9994 60.9088C77.9994 70.3323 70.3323 77.9994 60.9089 77.9994C51.4854 77.9994 43.8183 70.3323 43.8183 60.9088ZM18.4402 27.2747L33.8901 33.7568L29.4728 38.2126L18.4402 27.2747ZM31.1416 41.6763L29.273 39.8253L35.2363 33.8094L37.1048 35.6605L31.1416 41.6763ZM36.9891 37.0242L47.0717 47.0191L42.5878 51.5415L32.5053 41.5466L36.9891 37.0242ZM43.1908 52.1795L51.6642 43.6325L52.8842 44.842C49.2032 46.6895 46.2443 49.7606 44.5405 53.5187L43.1873 52.1795H43.1908ZM86.2203 89.1932L84.3518 87.3422L90.3151 81.3263L92.1836 83.1774L86.2203 89.1932ZM76.7759 69.3402L78.2728 70.8231L69.7994 79.3701L67.8853 77.47C71.6995 75.8609 74.8442 72.9686 76.7794 69.3367L76.7759 69.3402ZM78.8723 71.4611L88.9548 81.456L84.471 85.9784L74.3884 75.9836L78.8723 71.4611ZM87.5665 89.2458L91.9838 84.79L103.016 95.7279L87.5665 89.2458ZM101.877 68.4112C101.877 68.653 102.073 68.8494 102.315 68.8494H106.091C104.811 76.1869 101.803 82.9845 97.302 88.8286L92.5167 84.0853L93.1126 83.4824C93.1933 83.3982 93.2388 83.2895 93.2388 83.1703C93.2388 83.0546 93.1933 82.9425 93.1091 82.8618L90.6201 80.3938C90.4483 80.222 90.1713 80.2255 89.9995 80.3938L89.5683 80.8285L79.279 70.6268C79.2579 70.5847 79.2334 70.5391 79.1983 70.5041L77.186 68.5093C77.456 67.9344 77.6944 67.3454 77.9012 66.7389H101.877V68.4112ZM65.88 19.7899H67.6644C67.9063 19.7899 68.1026 19.5936 68.1026 19.3517V15.6076C87.9452 18.7347 103.567 34.6368 106.333 54.5354H102.312C102.07 54.5354 101.874 54.7317 101.874 54.9736V56.8036H78.3955C76.9091 50.4828 72.0817 45.4415 65.88 43.6501V19.7899ZM53.7852 15.5936V19.3517C53.7852 19.5936 53.9815 19.7899 54.2234 19.7899H55.9342V43.6501C55.177 43.8674 54.4372 44.1339 53.7256 44.4459L51.9657 42.7C51.8851 42.6194 51.7729 42.5738 51.6572 42.5738C51.5415 42.5738 51.4293 42.6194 51.3487 42.7035L47.6887 46.3951L37.6061 36.4002L38.0374 35.9655C38.118 35.8813 38.1636 35.7726 38.1636 35.6534C38.1636 35.5378 38.118 35.4256 38.0339 35.3449L35.5448 32.8769C35.373 32.7051 35.096 32.7086 34.9243 32.8769L34.6718 33.1328L27.0819 29.9461C33.9461 22.4473 43.2679 17.2307 53.7887 15.5901L53.7852 15.5936ZM20.0143 55.1349C20.0143 54.893 19.818 54.6967 19.5761 54.6967H15.4603C16.5051 46.991 19.4744 39.8884 23.8601 33.8866L28.9364 38.9208L28.3405 39.5238C28.2598 39.6079 28.2143 39.7166 28.2143 39.8358C28.2143 39.9515 28.2598 40.0637 28.344 40.1443L30.833 42.6124C30.9172 42.6965 31.0294 42.7386 31.1416 42.7386C31.2537 42.7386 31.3659 42.6965 31.4536 42.6088L31.8848 42.1741L42.1741 52.3759C42.1952 52.4214 42.2197 52.4635 42.2583 52.4986L44.1724 54.3952C43.8674 55.1734 43.6185 55.9798 43.4222 56.8071H20.0143V55.1349ZM55.9377 101.975H54.2269C53.985 101.975 53.7887 102.171 53.7887 102.413V106.228C44.3232 104.755 35.6955 100.419 28.8137 93.6736C21.9425 86.939 17.4341 78.4236 15.7618 69.0141H19.5796C19.8215 69.0141 20.0178 68.8178 20.0178 68.5759V66.7459H43.92C45.8166 72.2499 50.3145 76.5515 55.9377 78.1746V101.979V101.975ZM93.0881 93.5929C86.2098 100.366 77.5787 104.724 68.1026 106.214V102.413C68.1026 102.171 67.9063 101.975 67.6644 101.975H65.88V78.1711C66.2516 78.0625 66.6197 77.9468 66.9808 77.8171L69.4839 80.2991C69.5645 80.3798 69.6767 80.4253 69.7924 80.4253C69.8976 80.4148 70.0203 80.3798 70.1044 80.2956L73.7644 76.6041L83.847 86.599L83.4157 87.0337C83.3351 87.1178 83.2895 87.2265 83.2895 87.3457C83.2895 87.4614 83.3351 87.5736 83.4192 87.6542L85.9083 90.1222C85.9925 90.2064 86.1046 90.2484 86.2168 90.2484C86.329 90.2484 86.4412 90.2064 86.5289 90.1187L86.7813 89.8628L93.8348 92.8217C93.5859 93.0776 93.3405 93.337 93.0846 93.5894L93.0881 93.5929Z" fill="#00BAC9"/>
<path d="M75.4717 60.9264C75.4717 52.8982 68.9405 46.3635 60.9089 46.3635C58.0762 46.3635 55.4329 47.1803 53.1962 48.5826C53.1892 48.5826 53.1857 48.5897 53.1787 48.5932C51.8956 49.3995 50.7492 50.3986 49.7781 51.552C49.7711 51.559 49.7641 51.559 49.7571 51.566C49.743 51.5801 49.7395 51.5941 49.729 51.6081C47.6186 54.1357 46.346 57.3856 46.346 60.9264C46.346 64.4672 47.6186 67.7205 49.729 70.2447C49.7395 70.2587 49.743 70.2727 49.7571 70.2832C49.7641 70.2902 49.7711 70.2902 49.7746 70.2972C50.7352 71.4366 51.871 72.4287 53.1366 73.2315C53.1576 73.2421 53.1752 73.2596 53.1962 73.2701C55.4329 74.6724 58.0762 75.4893 60.9089 75.4893C68.937 75.4893 75.4717 68.958 75.4717 60.9264ZM60.9089 74.6128C60.1236 74.6128 59.3558 74.5427 58.6056 74.4165L71.7837 61.2384C71.8257 61.1998 71.8573 61.1507 71.8783 61.0982C71.8994 61.0456 71.9134 60.9895 71.9134 60.9299C71.9134 60.8703 71.9029 60.8142 71.8783 60.7616C71.8573 60.709 71.8222 60.6599 71.7837 60.6214L58.6056 47.4433C59.3558 47.3171 60.1236 47.247 60.9089 47.247C68.4532 47.247 74.5953 53.3855 74.5953 60.9334C74.5953 68.4813 68.4567 74.6198 60.9089 74.6198V74.6128ZM47.2224 60.9264C47.2224 57.7677 48.3022 54.8579 50.1076 52.5371L58.4969 60.9264L50.1076 69.3156C48.3022 66.9983 47.2224 64.0851 47.2224 60.9264ZM57.5784 47.6536L70.4164 60.4882H65.4768L54.0691 49.0805C55.1559 48.4529 56.3339 47.9656 57.5784 47.6536ZM53.3014 72.299C52.3268 71.647 51.4433 70.8687 50.6651 69.9922L59.2927 61.3646H64.2323L53.2979 72.299H53.3014ZM59.2962 60.4882L50.6686 51.8605C51.4433 50.9841 52.3303 50.2093 53.3049 49.5537L64.2393 60.4882H59.2962ZM65.4768 61.3646H70.4164L57.5819 74.1991C56.3338 73.8871 55.1559 73.3998 54.0691 72.7723L65.4768 61.3646Z" fill="#00BAC9"/>
</g>
<defs>
<clipPath id="clip0_2002_65">
<rect width="122" height="122" fill="white"/>
</clipPath>
</defs>
</svg>
