<svg width="262" height="48" viewBox="0 0 262 48" fill="none" xmlns="http://www.w3.org/2000/svg">
<path d="M47.9238 23.843L42.3918 18.3105C40.5177 12.2578 35.7338 7.47354 29.6816 5.59934L24.1539 0.0711904C24.1539 0.0711904 24.1422 0.0595675 24.135 0.053756C24.1306 0.0508503 24.1277 0.0479445 24.1234 0.0435859C24.1074 0.031963 24.0899 0.021793 24.0711 0.0145286C24.0667 0.0130758 24.0623 0.0116229 24.058 0.0101701C24.0391 0.00435859 24.0173 0 23.9955 0C23.9955 0 23.9955 0 23.9926 0H23.9912C23.9694 0 23.9476 0.00435859 23.9272 0.0116229C23.9229 0.0116229 23.92 0.0130758 23.9171 0.0145286C23.8967 0.021793 23.8793 0.031963 23.8619 0.0450388C23.859 0.0479445 23.8561 0.0493974 23.8531 0.0523031C23.8459 0.0595675 23.8372 0.0653789 23.8314 0.0740961L18.3065 5.59934C12.2543 7.47354 7.47043 12.2578 5.59638 18.3105L0.0642844 23.843C-0.0214281 23.9287 -0.0214281 24.0667 0.0642844 24.151L5.59638 29.6835C7.47043 35.7347 12.2543 40.5204 18.3065 42.3946L23.8386 47.9271C23.8386 47.9271 23.8488 47.9358 23.8546 47.9402C23.8575 47.9416 23.8604 47.9445 23.8619 47.946C23.8764 47.9576 23.8924 47.9663 23.9098 47.9736C23.9098 47.9736 23.9142 47.9736 23.9156 47.9751H23.9171C23.9214 47.9751 23.9243 47.978 23.9272 47.978C23.9345 47.9809 23.9418 47.9838 23.949 47.9852C23.9607 47.9881 23.9723 47.9881 23.9839 47.9881C23.9868 47.9881 23.9883 47.9881 23.9912 47.9881H23.9926C23.9926 47.9881 23.9926 47.9881 23.9955 47.9881C24.0086 47.9881 24.0231 47.9881 24.0362 47.9838C24.0435 47.9838 24.0507 47.9794 24.058 47.978C24.0623 47.978 24.0667 47.9751 24.0711 47.9736C24.074 47.9736 24.0754 47.9736 24.0783 47.9707C24.0856 47.9678 24.0914 47.9634 24.0987 47.9591C24.1045 47.9562 24.1103 47.9533 24.1161 47.9504C24.119 47.9489 24.1219 47.946 24.1234 47.9445C24.1277 47.9416 24.1306 47.9387 24.135 47.9358C24.1393 47.9315 24.1437 47.9286 24.1481 47.9242L29.6816 42.3917C35.7323 40.5175 40.5177 35.7332 42.3918 29.6806L47.9238 24.1481C48.0096 24.0623 48.0096 23.9243 47.9238 23.8401V23.843ZM4.7407 23.997C4.7407 25.6634 4.95426 27.2804 5.35377 28.8234L0.529166 23.9984L5.35377 19.1735C4.95426 20.7164 4.74216 22.3334 4.74216 23.9984L4.7407 23.997ZM5.17653 23.997C5.17653 14.0986 12.8572 5.9611 22.5704 5.23031L22.2667 6.49721C20.5162 6.66865 18.8397 7.0987 17.2765 7.74813C17.2736 7.74813 17.2707 7.74958 17.2664 7.75103C17.2635 7.75103 17.2605 7.75394 17.2576 7.75539C15.8499 8.3409 14.5352 9.1051 13.341 10.019C13.3236 10.0262 13.3076 10.0349 13.2916 10.0466C13.2756 10.0582 13.264 10.0727 13.2524 10.0872C12.0684 11.004 11.0035 12.0689 10.0868 13.253C10.0723 13.2647 10.0578 13.2763 10.0462 13.2923C10.0345 13.3082 10.0258 13.3242 10.0186 13.3417C9.10478 14.5374 8.34208 15.8522 7.75517 17.26C7.75517 17.2629 7.75226 17.2658 7.75081 17.2673C7.75081 17.2702 7.74936 17.2731 7.74791 17.276C6.88787 19.3478 6.41282 21.6172 6.41282 23.9955C6.41282 26.3739 6.88933 28.6447 7.74791 30.715C7.74791 30.7179 7.74936 30.7208 7.75081 30.7237L7.75372 30.7281C8.34063 32.1359 9.10332 33.4522 10.0171 34.6479C10.0244 34.6654 10.0331 34.6828 10.0447 34.6973C10.0563 34.7133 10.0709 34.7264 10.0868 34.738C11.0035 35.9221 12.0684 36.9856 13.2524 37.9023C13.264 37.9169 13.2756 37.9314 13.2916 37.943C13.3047 37.9532 13.3207 37.959 13.3352 37.9663C14.5323 38.8816 15.8485 39.6472 17.2576 40.2342C17.2605 40.2342 17.2635 40.2371 17.2664 40.2385C17.2693 40.2385 17.2736 40.24 17.2765 40.2415C18.8397 40.8909 20.5162 41.3195 22.2667 41.4924L22.5704 42.7593C12.8572 42.0285 5.17653 33.891 5.17653 23.9941V23.997ZM34.2549 10.2659L33.5852 11.1391C32.5857 10.3909 31.4961 9.75889 30.3353 9.25766L30.7566 8.24065C32.006 8.77821 33.1798 9.46106 34.2549 10.2659ZM30.7566 39.7533L30.3353 38.7363C31.4946 38.235 32.5857 37.6016 33.5852 36.8548L34.2549 37.728C33.1798 38.5343 32.006 39.2157 30.7566 39.7547V39.7533ZM13.7347 37.7265L14.4044 36.8534C15.4039 37.6016 16.4935 38.2336 17.6542 38.7348L17.2329 39.7518C15.9836 39.2143 14.8097 38.5314 13.7347 37.7251V37.7265ZM17.2329 8.2392L17.6542 9.2562C16.4949 9.75744 15.4054 10.3909 14.4044 11.1377L13.7347 10.2645C14.8097 9.45815 15.9836 8.77676 17.2329 8.23774V8.2392ZM41.1409 23.9955C41.1409 24.6798 41.0988 25.3539 41.0218 26.0179L39.9293 25.8741C39.9903 25.3583 40.0252 24.8353 40.0354 24.305L40.1908 24.1495C40.2315 24.1088 40.2548 24.0536 40.2548 23.9955C40.2548 23.9374 40.2315 23.8822 40.1908 23.8415L40.0354 23.6861C40.0252 23.1572 39.9889 22.6327 39.9293 22.117L41.0218 21.9731C41.1003 22.6371 41.1409 23.3112 41.1409 23.9955ZM6.84865 23.9955C6.84865 23.3112 6.89078 22.6371 6.96778 21.9731L8.06025 22.117C7.99923 22.6327 7.96437 23.1558 7.9542 23.6861L7.79875 23.8415C7.75808 23.8822 7.73483 23.9374 7.73483 23.9955C7.73483 24.0536 7.75808 24.1088 7.79875 24.1495L7.9542 24.305C7.96437 24.8338 8.00068 25.3569 8.06025 25.8726L6.96778 26.0165C6.88933 25.3525 6.84865 24.6784 6.84865 23.9955ZM26.6236 10.2543C27.4952 10.4214 28.3393 10.6684 29.147 10.988L28.6182 12.2651L26.6294 10.2776L26.6236 10.2543ZM26.2139 8.54285C27.4502 8.72009 28.6414 9.04118 29.7673 9.49157L29.3141 10.587C28.4206 10.2311 27.4836 9.96229 26.5131 9.79086L26.2153 8.5443L26.2139 8.54285ZM26.5117 38.2002C27.4821 38.0287 28.4192 37.76 29.3126 37.404L29.7659 38.4995C28.64 38.9499 27.4487 39.2709 26.2124 39.4482L26.5117 38.2016V38.2002ZM26.6279 37.7135L28.6167 35.7245L29.1455 37.0016C28.3393 37.3226 27.4952 37.5696 26.6221 37.7353L26.6279 37.712V37.7135ZM35.7222 28.6185L37.7371 26.6034C37.5715 27.4838 37.3216 28.3338 36.9991 29.1474L35.7222 28.6185ZM36.8306 29.5498C35.4171 32.8042 32.8021 35.4208 29.5465 36.8345L28.948 35.3918L35.3866 28.9527L36.8292 29.5498H36.8306ZM29.7136 37.2369C33.0752 35.7797 35.7759 33.0774 37.233 29.7169L38.3284 30.1702C36.7507 33.8212 33.8176 36.7531 30.1668 38.3324L29.7136 37.2369ZM37.4015 29.3145C37.8112 28.2858 38.1047 27.2005 38.2674 26.0731L39.5836 24.7568C39.4993 26.5191 39.1201 28.2059 38.4955 29.7692L37.4001 29.3159L37.4015 29.3145ZM35.388 19.0398L28.9494 12.6007L29.5479 11.158C32.8021 12.5716 35.4185 15.1883 36.8321 18.4427L35.3895 19.0398H35.388ZM36.9991 18.8437C37.3231 19.6573 37.5715 20.5086 37.7371 21.3891L35.7222 19.374L36.9991 18.8451V18.8437ZM38.2688 21.9194C38.1061 20.7919 37.8112 19.7052 37.403 18.678L38.4984 18.2247C39.1231 19.788 39.5008 21.4748 39.5865 23.2371L38.2688 21.9194ZM37.2345 18.2756C35.7774 14.9137 33.0752 12.2128 29.715 10.7556L30.1683 9.6601C33.819 11.2379 36.7522 14.1712 38.3299 17.8223L37.2345 18.2756ZM39.7289 23.997L26.8226 36.9042L27.4211 34.4082L37.6776 24.151C37.7182 24.1103 37.7415 24.0551 37.7415 23.997C37.7415 23.9389 37.7182 23.8836 37.6776 23.843L27.4226 13.5872L26.824 11.0912L39.7303 23.9984L39.7289 23.997ZM37.2141 23.997L27.6143 33.5975L28.4497 30.1135C30.3368 28.7348 31.5658 26.5075 31.5658 23.997C31.5658 21.4864 30.3368 19.2592 28.4497 17.8804L27.6158 14.3964L37.2156 23.997H37.2141ZM31.1285 23.997C31.1285 27.9313 27.9281 31.132 23.9941 31.132C20.06 31.132 16.8596 27.9313 16.8596 23.997C16.8596 20.0626 20.06 16.8619 23.9941 16.8619C27.9281 16.8619 31.1285 20.0626 31.1285 23.997ZM21.366 37.7382C20.4944 37.5711 19.6503 37.3241 18.8426 37.003L19.3714 35.7259L21.3602 37.7149L21.366 37.7382ZM21.7757 39.4496C20.5394 39.2724 19.3482 38.9513 18.2223 38.5009L18.6755 37.4055C19.569 37.7614 20.506 38.0302 21.4764 38.2016L21.7757 39.4482V39.4496ZM21.4764 9.79231C20.506 9.96375 19.569 10.2325 18.6755 10.5885L18.2223 9.49302C19.3482 9.04263 20.5394 8.72155 21.7757 8.5443L21.4779 9.79086L21.4764 9.79231ZM21.3602 10.2805L19.3714 12.2694L18.8426 10.9924C19.6489 10.6713 20.4929 10.4243 21.366 10.2587L21.3602 10.2819V10.2805ZM12.266 19.3754L10.251 21.3905C10.4181 20.5101 10.6665 19.6602 10.989 18.8466L12.266 19.3754ZM11.1575 18.4441C12.5711 15.1897 15.186 12.5731 18.4416 11.1595L19.0402 12.6021L12.6016 19.0412L11.159 18.4441H11.1575ZM18.2746 10.757C14.9143 12.2157 12.2122 14.9166 10.7551 18.277L9.65973 17.8237C11.2374 14.1727 14.1705 11.2408 17.8213 9.66155L18.2746 10.757ZM10.5866 18.6795C10.1769 19.7081 9.88346 20.7934 9.72075 21.9208L8.40455 23.2371C8.48881 21.4748 8.86798 19.788 9.49266 18.2247L10.588 18.678L10.5866 18.6795ZM12.6001 28.9541L19.0387 35.3932L18.4402 36.8359C15.186 35.4223 12.5696 32.8057 11.1561 29.5513L12.5987 28.9541H12.6001ZM10.989 29.1488C10.665 28.3352 10.4166 27.4838 10.251 26.6049L12.266 28.62L10.989 29.1488ZM8.40455 24.7583L9.72075 26.0746C9.88346 27.202 10.1769 28.2887 10.5866 29.3159L9.49121 29.7692C8.86798 28.2059 8.48881 26.5206 8.4031 24.7583H8.40455ZM10.7551 29.7184C12.2137 33.0803 14.9143 35.7812 18.2746 37.2384L17.8213 38.3338C14.1705 36.756 11.2389 33.8227 9.65973 30.1716L10.7551 29.7184ZM8.26073 23.9984L21.167 11.0912L20.5685 13.5872L10.3135 23.843C10.2278 23.9287 10.2278 24.0667 10.3135 24.151L20.5699 34.4082L21.1685 36.9042L8.26218 23.997L8.26073 23.9984ZM10.7754 23.9984L20.3753 14.3979L19.5399 17.8819C17.6528 19.2606 16.4252 21.4879 16.4252 23.997C16.4252 26.5061 17.6542 28.7348 19.5414 30.1135L20.3753 33.5975L10.7754 23.997V23.9984ZM23.7776 16.4334C22.4251 16.4726 21.1612 16.8649 20.0745 17.5245L23.7776 2.06597V16.4334ZM22.0387 7.45756L21.9747 6.97085C22.0372 6.96358 22.0982 6.95632 22.1607 6.94905L22.0387 7.45756ZM21.6856 8.12006C20.4232 8.30312 19.2072 8.63292 18.0567 9.09348L17.6354 8.07648C18.8731 7.5796 20.182 7.2251 21.5418 7.02896L21.6856 8.12151V8.12006ZM13.3904 10.5347L14.0601 11.4079C13.0752 12.1866 12.1846 13.0787 11.4059 14.0623L10.5328 13.3925C11.3696 12.3319 12.3299 11.3716 13.3904 10.5347ZM11.1401 14.4081C10.3934 15.4076 9.75997 16.4973 9.25877 17.6581L8.24039 17.2368C8.77936 15.9873 9.4607 14.8134 10.267 13.7383L11.1401 14.4081ZM8.07332 17.6392L9.09025 18.0606C8.62973 19.2112 8.29995 20.4258 8.1169 21.6884L7.02443 21.5445C7.22056 20.1847 7.57503 18.8756 8.07187 17.6378L8.07332 17.6392ZM8.11836 26.3099C8.30141 27.5725 8.63118 28.7885 9.0917 29.9377L8.07478 30.3591C7.57793 29.1212 7.22346 27.8122 7.02734 26.4523L8.11981 26.3085L8.11836 26.3099ZM9.25877 30.3402C9.75997 31.4996 10.3919 32.5907 11.1401 33.5902L10.267 34.26C9.4607 33.1849 8.77936 32.011 8.24039 30.7615L9.25877 30.3402ZM10.5328 34.6058L11.4059 33.936C12.1846 34.9211 13.0766 35.8117 14.0601 36.5904L13.3904 37.4636C12.3299 36.6267 11.3696 35.6664 10.5328 34.6058ZM18.0581 38.9063C19.2087 39.3668 20.4246 39.6966 21.6871 39.8797L21.5433 40.9722C20.1835 40.7761 18.8746 40.4216 17.6368 39.9247L18.0581 38.9077V38.9063ZM22.0387 40.5407L22.1607 41.0492C22.0982 41.042 22.0372 41.0347 21.9747 41.0275L22.0387 40.5407ZM20.076 30.4738C21.1612 31.1334 22.4265 31.5257 23.7791 31.5649V45.9309L20.076 30.4738ZM24.2149 31.5649C25.5659 31.5272 26.8313 31.1334 27.918 30.4738L24.2149 45.9323V31.5649ZM25.9538 40.5407L26.0178 41.0275C25.9553 41.0347 25.8943 41.042 25.8318 41.0492L25.9538 40.5407ZM26.3069 39.8797C27.5693 39.6966 28.7853 39.3668 29.9344 38.9063L30.3557 39.9233C29.1179 40.4187 27.809 40.7747 26.4507 40.9708L26.3069 39.8782V39.8797ZM34.6021 37.465L33.9324 36.5919C34.9173 35.8131 35.8079 34.9211 36.588 33.9375L37.4611 34.6072C36.6229 35.6678 35.664 36.6282 34.6035 37.465H34.6021ZM36.8524 33.5917C37.6006 32.5921 38.234 31.5025 38.7337 30.3416L39.7506 30.763C39.2117 32.0124 38.5303 33.1863 37.724 34.2615L36.8509 33.5917H36.8524ZM39.9192 30.3605L38.9022 29.9392C39.3628 28.7885 39.6925 27.5739 39.8756 26.3114L40.9666 26.4552C40.7705 27.8151 40.416 29.1241 39.9192 30.362V30.3605ZM39.8741 21.6898C39.6911 20.4273 39.3613 19.2112 38.9008 18.0606L39.9177 17.6392C40.4131 18.8771 40.769 20.1861 40.9651 21.546L39.8741 21.6898ZM38.7337 17.6596C38.2325 16.5002 37.5991 15.4091 36.8524 14.4095L37.7255 13.7397C38.5318 14.8149 39.2131 15.9888 39.7521 17.2382L38.7352 17.6596H38.7337ZM37.4596 13.394L36.5865 14.0637C35.8079 13.0787 34.9159 12.1881 33.9309 11.4093L34.6006 10.5362C35.6611 11.373 36.6214 12.3334 37.4582 13.394H37.4596ZM29.9344 9.09348C28.7838 8.63438 27.5693 8.30312 26.3069 8.12151L26.4507 7.02896C27.8105 7.2251 29.1194 7.5796 30.3557 8.07648L29.9344 9.09348ZM25.9538 7.45901L25.8318 6.95196C25.8943 6.95922 25.9553 6.96649 26.0178 6.97375L25.9538 7.46046V7.45901ZM27.9165 17.5259C26.8298 16.8663 25.5659 16.4726 24.2134 16.4348V2.06162L27.9165 17.5216V17.5259ZM25.3146 4.7901L24.3878 0.922569L28.8201 5.35526C27.6884 5.06178 26.516 4.87 25.3132 4.78864L25.3146 4.7901ZM22.6779 4.7901C21.4764 4.87146 20.3026 5.06323 19.1709 5.35671L23.6047 0.922569L22.6779 4.7901ZM22.6779 43.2097L23.6047 47.0772L19.1709 42.643C20.3026 42.9365 21.4764 43.1283 22.6779 43.2097ZM25.3146 43.2097C26.5175 43.1283 27.6899 42.9365 28.8216 42.643L24.3878 47.0772L25.3146 43.2097ZM25.4207 42.7665L25.7243 41.4996C27.4749 41.3282 29.1528 40.8981 30.716 40.2487C30.7189 40.2487 30.7218 40.2473 30.7247 40.2458C30.7276 40.2458 30.729 40.2429 30.7319 40.2415C32.1426 39.6545 33.4588 38.8888 34.6558 37.9735C34.6704 37.9663 34.6849 37.9605 34.698 37.9503C34.7139 37.9387 34.7256 37.9256 34.7372 37.9096C35.9212 36.9928 36.9861 35.9279 37.9027 34.7438C37.9173 34.7322 37.9318 34.7191 37.9434 34.7031C37.955 34.6872 37.9638 34.6712 37.971 34.6537C38.8848 33.458 39.649 32.1403 40.2359 30.7325C40.2359 30.7325 40.2373 30.7295 40.2388 30.7281C40.2388 30.7252 40.2388 30.7223 40.2417 30.7208C41.1017 28.649 41.5782 26.3782 41.5782 23.9999C41.5782 21.6215 41.1017 19.3507 40.2417 17.2789C40.2417 17.276 40.2417 17.2731 40.2388 17.2702C40.2388 17.2673 40.2359 17.2658 40.2344 17.2629C39.6489 15.8551 38.8848 14.5403 37.971 13.3446C37.9638 13.3271 37.955 13.3111 37.9434 13.2952C37.9318 13.2792 37.9173 13.2676 37.9027 13.2559C36.9861 12.0719 35.9212 11.0069 34.7372 10.0901C34.7256 10.0756 34.7125 10.0611 34.698 10.0495C34.682 10.0378 34.666 10.0291 34.6486 10.0219C33.453 9.10801 32.1382 8.34526 30.7305 7.7583C30.7276 7.7583 30.7261 7.75539 30.7232 7.75394C30.7203 7.75394 30.7174 7.75249 30.7145 7.75103C29.1513 7.1016 27.4749 6.67156 25.7228 6.50012L25.4192 5.23322C35.1323 5.96401 42.813 14.1015 42.813 23.9999C42.813 33.8982 35.1323 42.0357 25.4192 42.7651L25.4207 42.7665ZM43.2503 24.0013C43.2503 22.3349 43.0382 20.7179 42.6387 19.1764L47.4633 24.0013L42.6387 28.8263C43.0382 27.2834 43.2503 25.6663 43.2503 23.9999V24.0013Z" fill="#07D0DD"/>
<path d="M23.9941 18.0823C20.7326 18.0823 18.0799 20.7353 18.0799 23.997C18.0799 27.2586 20.7326 29.9101 23.9941 29.9101C27.2555 29.9101 29.9082 27.2572 29.9082 23.997C29.9082 20.7367 27.2555 18.0823 23.9941 18.0823ZM23.9941 29.4743C20.9738 29.4743 18.5157 27.0175 18.5157 23.997C18.5157 20.9765 20.9723 18.5182 23.9941 18.5182C27.0158 18.5182 29.4724 20.975 29.4724 23.997C29.4724 27.0189 27.0158 29.4743 23.9941 29.4743Z" fill="#07D0DD"/>
<path d="M23.9941 19.3522C22.5733 19.3522 21.3007 19.9943 20.4479 21.0026C20.4464 21.0041 20.4435 21.0041 20.4421 21.007C20.4392 21.0099 20.4377 21.0157 20.4348 21.0186C19.7578 21.8249 19.3496 22.8652 19.3496 23.9984C19.3496 25.1317 19.7578 26.1705 20.4348 26.9782C20.4377 26.9811 20.4392 26.9855 20.4421 26.9899C20.4435 26.9913 20.4464 26.9913 20.4479 26.9928C21.3007 28.0011 22.5733 28.6432 23.9941 28.6432C26.5553 28.6432 28.6385 26.5598 28.6385 23.9984C28.6385 21.437 26.5553 19.3536 23.9941 19.3536V19.3522ZM23.9941 28.2059C23.8067 28.2059 23.6236 28.1928 23.442 28.1681L27.4589 24.151C27.469 24.1408 27.4778 24.1292 27.4865 24.1176C27.4879 24.1146 27.4894 24.1117 27.4908 24.1088C27.4967 24.1001 27.5025 24.0899 27.5068 24.0798C27.5083 24.0754 27.5097 24.0711 27.5112 24.0667C27.5141 24.058 27.517 24.0478 27.5199 24.0391C27.5228 24.0246 27.5243 24.01 27.5243 23.9955C27.5243 23.981 27.5228 23.9665 27.5199 23.9519C27.5184 23.9418 27.5141 23.933 27.5112 23.9243C27.5112 23.92 27.5083 23.9156 27.5068 23.9112C27.5025 23.9011 27.4967 23.8909 27.4908 23.8822C27.4894 23.8793 27.4879 23.8764 27.4865 23.8749C27.4792 23.8633 27.469 23.8517 27.4589 23.8415L23.442 19.8243C23.6222 19.8011 23.8067 19.7866 23.9941 19.7866C26.3141 19.7866 28.2027 21.6753 28.2027 23.9955C28.2027 26.3157 26.3141 28.2045 23.9941 28.2045V28.2059ZM26.779 23.779H25.4584L21.9805 20.3009C22.2755 20.1396 22.5922 20.0132 22.9248 19.9246L26.779 23.779ZM24.8425 23.779H23.5219L20.8953 21.1523C21.1074 20.9227 21.3428 20.7164 21.6014 20.5377L24.8425 23.779ZM23.1239 23.997L20.5961 26.525V26.4756C20.0876 25.7796 19.7854 24.9224 19.7854 23.9955C19.7854 23.0686 20.0876 22.2114 20.5961 21.5155V21.4661L23.1239 23.9941V23.997ZM20.8953 26.8417L23.5219 24.2149H24.8425L21.6014 27.4562C21.3442 27.2775 21.1074 27.0712 20.8953 26.8417ZM25.4584 24.2149H26.779L22.9263 28.0679C22.5936 27.9807 22.2769 27.8543 21.982 27.6931L25.4599 24.2149H25.4584Z" fill="#07D0DD"/>
<path d="M71.5233 16.6936L78.011 0.543057H83.094L72.7107 25.2015H70.1873L59.9851 0.543057H65.1043L71.5196 16.6936H71.5233Z" fill="#00BAC6"/>
<path d="M94.8457 19.503L92.6844 24.586H87.71L98.1294 0.036195H101.663L111.757 24.586H106.746L104.69 19.503H94.8457ZM99.8564 7.06698L96.3591 15.7197H103.209L99.8564 7.06698Z" fill="#00BAC6"/>
<path d="M143.25 11.7192C143.214 15.2527 142.924 17.0194 141.99 18.8586C140.006 22.8953 136.295 25.1327 131.535 25.1327C124.25 25.1327 118.918 19.9049 118.918 12.6931C118.918 5.48126 124.29 0.00362392 131.679 0.00362392C136.151 0.00362392 139.72 1.95139 141.99 5.66228L137.881 7.85984C136.44 5.48125 134.348 4.29015 131.647 4.29015C127.103 4.29015 123.751 7.85985 123.751 12.6894C123.751 17.519 127.103 20.8715 131.611 20.8715C135.036 20.8715 137.559 18.8513 137.921 15.7885H132.262V11.7156H143.257L143.25 11.7192Z" fill="#00BAC6"/>
<path d="M165.718 24.5896L159.231 14.9268H158.619V24.5896H153.93V0.543057H160.889C163.557 0.543057 165.682 1.11869 167.018 2.23739C168.495 3.4647 169.397 5.51746 169.397 7.64624C169.397 9.77503 168.568 11.7916 167.235 12.9465C166.298 13.7393 165.432 14.1738 163.919 14.4598L171.489 24.5896H165.718ZM159.984 11.6106C162.941 11.6106 164.563 10.3108 164.563 7.93226C164.563 5.55367 163.014 4.32636 160.056 4.32636H158.615V11.6069H159.984V11.6106Z" fill="#00BAC6"/>
<path d="M187.422 19.503L185.261 24.586H180.287L190.706 0.036195H194.24L204.333 24.586H199.323L197.266 19.503H187.422ZM192.433 7.06698L188.936 15.7197H195.786L192.433 7.06698Z" fill="#00BAC6"/>
<path d="M213.873 0H217.117L231.754 16.7298V0.543057H236.442V25.0567H233.199L218.561 8.32688V24.586H213.873V0Z" fill="#00BAC6"/>
<path d="M251.424 24.5896V4.61599H246.051V0.543057H261.517V4.61599H256.108V24.5896H251.42H251.424Z" fill="#00BAC6"/>
<path d="M61.6831 37.6012H64.2535L66.2809 42.9522L68.4278 37.6012H71.0273L72.5297 47.6224H69.9303L69.1954 41.8516L66.7769 47.6224H65.7415L63.4281 41.8516L62.5701 47.6224H59.9851L61.6831 37.6012Z" fill="#00BAC6"/>
<path d="M80.2411 39.8097V41.4787H83.17V43.6871H80.2411V45.414H83.3366V47.6224H77.6417V37.6012H83.3366V39.8097H80.2411Z" fill="#00BAC6"/>
<path d="M88.4449 37.6012H92.2898C94.9326 37.6012 97.2171 39.9147 97.2171 42.6046C97.2171 45.2945 94.9326 47.6224 92.2898 47.6224H88.4449V37.6012ZM91.6453 45.414C92.6228 45.414 93.2528 45.157 93.7777 44.5741C94.2448 44.0636 94.4982 43.3576 94.4982 42.6046C94.4982 41.8516 94.2411 41.1637 93.7777 40.6496C93.2528 40.0631 92.6192 39.8097 91.6453 39.8097H91.0444V45.414H91.6453Z" fill="#00BAC6"/>
<path d="M104.943 47.6224H102.344V37.6012H104.943V47.6224Z" fill="#00BAC6"/>
<path d="M113.013 45.881L112.321 47.6224H109.573L113.418 37.6012H116.257L120.029 47.6224H117.249L116.604 45.881H113.013ZM114.83 40.6967L113.733 43.8971H115.898L114.83 40.6967Z" fill="#00BAC6"/>
<path d="M141.893 42.0615C141.864 43.535 141.726 44.346 141.368 45.1425C140.542 46.9744 138.902 47.9809 136.755 47.9809C133.584 47.9809 131.404 45.8159 131.404 42.6625C131.404 39.5092 133.613 37.2827 136.842 37.2827C138.975 37.2827 140.405 38.1841 141.35 40.1065L138.87 41.1275C138.421 40.045 137.729 39.5345 136.723 39.5345C135.235 39.5345 134.123 40.8704 134.123 42.6734C134.123 43.5894 134.453 44.5053 135.025 45.1063C135.459 45.5878 136.06 45.8268 136.799 45.8268C137.537 45.8268 138.12 45.5697 138.497 45.0918C138.692 44.8203 138.783 44.5813 138.859 44.0854H136.726V42.0579H141.896L141.893 42.0615Z" fill="#00BAC6"/>
<path d="M152.084 47.6224L149.604 43.7776V47.6224H147.005V37.6012H151.049C152.174 37.6012 152.928 37.8728 153.514 38.4882C154.053 39.0603 154.372 39.8712 154.372 40.6967C154.372 41.5837 154.024 42.4236 153.456 42.9196C153.109 43.2201 152.779 43.3721 152.178 43.5206L155.335 47.6224H152.084ZM150.086 42.0941C150.582 42.0941 150.958 42.0036 151.197 41.8226C151.483 41.6271 151.693 41.2071 151.693 40.8451C151.693 40.4831 151.483 40.0776 151.197 39.8676C150.958 39.7011 150.582 39.5961 150.086 39.5961H149.604V42.0905H150.086V42.0941Z" fill="#00BAC6"/>
<path d="M168.926 38.9842C169.856 39.9617 170.367 41.2542 170.367 42.6372C170.367 44.2302 169.69 45.7181 168.488 46.7246C167.481 47.5645 166.251 47.9881 164.777 47.9881C161.62 47.9881 159.278 45.6747 159.278 42.5503C159.278 41.0479 159.969 39.5743 161.157 38.5679C162.105 37.7569 163.427 37.3044 164.824 37.3044C166.493 37.3044 167.858 37.8619 168.926 38.9878V38.9842ZM162 42.6046C162 44.1976 163.249 45.4611 164.824 45.4611C166.399 45.4611 167.648 44.1976 167.648 42.6372C167.648 41.0768 166.384 39.8278 164.824 39.8278C163.264 39.8278 162 41.0913 162 42.6082V42.6046Z" fill="#00BAC6"/>
<path d="M178.075 43.0246C178.075 44.165 178.104 44.3931 178.361 44.8131C178.647 45.2946 179.186 45.5806 179.82 45.5806C180.453 45.5806 181.065 45.2656 181.337 44.7696C181.561 44.3786 181.608 44.0781 181.608 43.0282V37.6049H184.208V43.3902C184.208 44.8637 183.951 45.6602 183.23 46.4712C182.405 47.4016 181.232 47.8831 179.773 47.8831C178.241 47.8831 176.887 47.3111 176.196 46.3807C175.671 45.6892 175.475 44.8637 175.475 43.3902V37.6049H178.075V43.0282V43.0246Z" fill="#00BAC6"/>
<path d="M192.368 47.6224H189.768V37.6012H193.899C195.072 37.6012 195.764 37.8257 196.408 38.4412C197.053 39.0566 197.386 39.8676 197.386 40.9211C197.386 41.9131 197.1 42.7675 196.575 43.354C196.017 43.984 195.192 44.2845 193.99 44.2845H192.368V47.6224ZM193.226 42.1991C194.218 42.1991 194.667 41.8081 194.667 40.9537C194.667 40.0993 194.2 39.6902 193.24 39.6902H192.368V42.1991H193.226Z" fill="#00BAC6"/>
</svg>
