<svg width="244" height="599" viewBox="0 0 244 599" fill="none" xmlns="http://www.w3.org/2000/svg">
<g filter="url(#filter0_d_2005_21)">
<path d="M76.076 560.216C78.7953 560.216 81.3031 559.702 83.5994 558.675C85.8957 557.648 87.8899 556.258 89.5819 554.505C91.2739 552.753 92.6033 550.729 93.5702 548.432C94.4766 546.076 94.9298 543.598 94.9298 541C94.9298 538.401 94.4766 535.954 93.5702 533.658C92.6033 531.301 91.2739 529.246 89.5819 527.494C87.8899 525.681 85.8957 524.261 83.5994 523.234C81.3031 522.206 78.7953 521.693 76.076 521.693C73.3567 521.693 70.8489 522.206 68.5526 523.234C66.2563 524.261 64.2622 525.681 62.5702 527.494C60.8782 529.246 59.5789 531.301 58.6725 533.658C57.7057 535.954 57.2222 538.401 57.2222 541C57.2222 543.598 57.7057 546.076 58.6725 548.432C59.5789 550.729 60.8782 552.753 62.5702 554.505C64.2622 556.258 66.2563 557.648 68.5526 558.675C70.8489 559.702 73.3567 560.216 76.076 560.216ZM76.076 578.798C71 578.798 66.2866 577.861 61.9357 575.988C57.5244 574.115 53.6871 571.516 50.424 568.193C47.1608 564.869 44.6228 560.911 42.8099 556.318C40.9366 551.665 40 546.559 40 541C40 535.501 40.9366 530.425 42.8099 525.772C44.6228 521.119 47.1608 517.13 50.424 513.807C53.6871 510.423 57.5244 507.794 61.9357 505.921C66.2865 504.047 71 503.111 76.076 503.111C81.152 503.111 85.8957 504.047 90.307 505.921C94.6579 507.794 98.4649 510.423 101.728 513.807C104.991 517.13 107.559 521.119 109.433 525.772C111.246 530.425 112.152 535.501 112.152 541C112.152 546.559 111.246 551.665 109.433 556.318C107.559 560.911 104.991 564.869 101.728 568.193C98.4649 571.516 94.6579 574.115 90.307 575.988C85.8957 577.861 81.152 578.798 76.076 578.798Z" fill="white"/>
<path d="M41.9035 477.748H79.0672C81.0614 477.748 83.116 477.688 85.231 477.567C87.2856 477.386 89.1589 476.933 90.8509 476.207C92.5429 475.422 93.9327 474.213 95.0205 472.582C96.0478 470.95 96.5614 468.654 96.5614 465.693C96.5614 462.732 96.0478 460.466 95.0205 458.895C93.9327 457.263 92.5429 456.054 90.8509 455.269C89.1589 454.483 87.2856 454.03 85.231 453.909C83.116 453.728 81.0614 453.637 79.0672 453.637H41.9035L41.9035 435.962H81.5146C92.1501 435.962 99.9152 438.409 104.81 443.304C109.705 448.138 112.152 455.601 112.152 465.693C112.152 475.784 109.705 483.278 104.81 488.172C99.9152 493.067 92.1501 495.514 81.5146 495.514H41.9035L41.9035 477.748Z" fill="white"/>
<path d="M72.4503 407.461V404.107C72.4503 400.602 71.7251 397.913 70.2748 396.04C68.8246 394.167 66.7398 393.23 64.0205 393.23C61.3012 393.23 59.2164 394.167 57.7661 396.04C56.3158 397.913 55.5906 400.602 55.5906 404.107V407.461H72.4503ZM110.249 368.394V390.511L83.962 407.461L110.249 407.461V425.227L41.9035 425.227L41.9035 397.581C41.9035 393.774 42.4776 390.45 43.6257 387.61C44.7134 384.77 46.2242 382.443 48.1579 380.63C50.0916 378.757 52.3275 377.367 54.8655 376.461C57.4035 375.494 60.1228 375.011 63.0234 375.011C68.2203 375.011 72.4503 376.28 75.7134 378.818C78.9162 381.295 81.0916 384.981 82.2398 389.876L110.249 368.394Z" fill="white"/>
<path d="M164.266 557.886V551.995C164.266 545.468 161.426 542.205 155.746 542.205C150.065 542.205 147.225 545.468 147.225 551.995V557.886H164.266ZM201.249 557.886V575.653H132.904V547.372C132.904 539.697 134.898 533.836 138.886 529.787C142.874 525.678 148.494 523.623 155.746 523.623C162.997 523.623 168.617 525.678 172.605 529.787C176.594 533.836 178.588 539.697 178.588 547.372V557.886H201.249Z" fill="white"/>
<path d="M167.076 502.346C169.795 502.346 172.303 501.833 174.599 500.805C176.896 499.778 178.89 498.388 180.582 496.636C182.274 494.883 183.603 492.859 184.57 490.563C185.477 488.206 185.93 485.728 185.93 483.13C185.93 480.531 185.477 478.084 184.57 475.788C183.603 473.431 182.274 471.376 180.582 469.624C178.89 467.811 176.896 466.391 174.599 465.364C172.303 464.336 169.795 463.823 167.076 463.823C164.357 463.823 161.849 464.336 159.553 465.364C157.256 466.391 155.262 467.811 153.57 469.624C151.878 471.376 150.579 473.431 149.673 475.788C148.706 478.084 148.222 480.531 148.222 483.13C148.222 485.728 148.706 488.206 149.673 490.563C150.579 492.859 151.878 494.883 153.57 496.636C155.262 498.388 157.256 499.778 159.553 500.805C161.849 501.833 164.357 502.346 167.076 502.346ZM167.076 520.928C162 520.928 157.287 519.991 152.936 518.118C148.524 516.245 144.687 513.646 141.424 510.323C138.161 506.999 135.623 503.041 133.81 498.449C131.937 493.796 131 488.689 131 483.13C131 477.631 131.937 472.555 133.81 467.902C135.623 463.249 138.161 459.26 141.424 455.937C144.687 452.553 148.524 449.924 152.936 448.051C157.287 446.178 162 445.241 167.076 445.241C172.152 445.241 176.896 446.178 181.307 448.051C185.658 449.924 189.465 452.553 192.728 455.937C195.991 459.26 198.559 463.249 200.433 467.902C202.246 472.555 203.152 477.631 203.152 483.13C203.152 488.689 202.246 493.796 200.433 498.449C198.559 503.041 195.991 506.999 192.728 510.323C189.465 513.646 185.658 516.245 181.307 518.118C176.896 519.991 172.152 520.928 167.076 520.928Z" fill="white"/>
<path d="M163.45 419.879V416.525C163.45 413.02 162.725 410.331 161.275 408.457C159.825 406.584 157.74 405.648 155.02 405.648C152.301 405.648 150.216 406.584 148.766 408.457C147.316 410.331 146.591 413.02 146.591 416.525V419.879H163.45ZM201.249 380.811V402.928L174.962 419.879H201.249V437.645H132.904V409.998C132.904 406.191 133.478 402.868 134.626 400.028C135.713 397.187 137.224 394.861 139.158 393.048C141.092 391.175 143.327 389.785 145.865 388.879C148.404 387.912 151.123 387.428 154.023 387.428C159.22 387.428 163.45 388.697 166.713 391.235C169.916 393.713 172.092 397.399 173.24 402.294L201.249 380.811Z" fill="white"/>
<path d="M147.95 350.993H201.249V368.759H147.95V383.353H132.904V336.4H147.95V350.993Z" fill="white"/>
<path d="M147.95 292.965V314.357H159.371V294.869H174.418V314.357H201.249V332.123H132.904V292.965H147.95Z" fill="white"/>
<path d="M167.076 270.59C169.795 270.59 172.303 270.076 174.599 269.049C176.896 268.022 178.89 266.632 180.582 264.879C182.274 263.127 183.603 261.102 184.57 258.806C185.477 256.449 185.93 253.972 185.93 251.373C185.93 248.775 185.477 246.328 184.57 244.031C183.603 241.675 182.274 239.62 180.582 237.868C178.89 236.055 176.896 234.635 174.599 233.607C172.303 232.58 169.795 232.066 167.076 232.066C164.357 232.066 161.849 232.58 159.553 233.607C157.256 234.635 155.262 236.055 153.57 237.868C151.878 239.62 150.579 241.675 149.673 244.031C148.706 246.328 148.222 248.775 148.222 251.373C148.222 253.972 148.706 256.449 149.673 258.806C150.579 261.102 151.878 263.127 153.57 264.879C155.262 266.632 157.256 268.022 159.553 269.049C161.849 270.076 164.357 270.59 167.076 270.59ZM167.076 289.172C162 289.172 157.287 288.235 152.936 286.362C148.524 284.488 144.687 281.89 141.424 278.566C138.161 275.243 135.623 271.285 133.81 266.692C131.937 262.039 131 256.933 131 251.373C131 245.874 131.937 240.798 133.81 236.145C135.623 231.492 138.161 227.504 141.424 224.18C144.687 220.796 148.524 218.168 152.936 216.294C157.287 214.421 162 213.484 167.076 213.484C172.152 213.484 176.896 214.421 181.307 216.294C185.658 218.168 189.465 220.796 192.728 224.18C195.991 227.504 198.559 231.492 200.433 236.145C202.246 240.798 203.152 245.874 203.152 251.373C203.152 256.933 202.246 262.039 200.433 266.692C198.559 271.285 195.991 275.243 192.728 278.566C189.465 281.89 185.658 284.488 181.307 286.362C176.896 288.235 172.152 289.172 167.076 289.172Z" fill="white"/>
<path d="M132.903 188.122L186.202 188.122V166.821H201.249V205.888H132.903V188.122Z" fill="white"/>
<path d="M132.903 143.505L201.249 143.505V161.271L132.903 161.271V143.505Z" fill="white"/>
<path d="M167.076 117.353C169.795 117.353 172.303 116.839 174.599 115.812C176.896 114.785 178.89 113.395 180.582 111.643C182.274 109.89 183.603 107.866 184.57 105.569C185.477 103.213 185.93 100.735 185.93 98.1367C185.93 95.5383 185.477 93.0909 184.57 90.7946C183.603 88.4379 182.274 86.3833 180.582 84.6308C178.89 82.818 176.896 81.3979 174.599 80.3706C172.303 79.3433 169.795 78.8297 167.076 78.8297C164.357 78.8297 161.849 79.3433 159.553 80.3706C157.256 81.3979 155.262 82.818 153.57 84.6308C151.878 86.3833 150.579 88.4379 149.673 90.7946C148.706 93.0909 148.222 95.5383 148.222 98.1367C148.222 100.735 148.706 103.213 149.673 105.569C150.579 107.866 151.878 109.89 153.57 111.643C155.262 113.395 157.256 114.785 159.553 115.812C161.849 116.839 164.357 117.353 167.076 117.353ZM167.076 135.935C162 135.935 157.287 134.998 152.936 133.125C148.524 131.252 144.687 128.653 141.424 125.33C138.161 122.006 135.623 118.048 133.81 113.455C131.937 108.802 131 103.696 131 98.1367C131 92.6377 131.937 87.5616 133.81 82.9086C135.623 78.2556 138.161 74.2673 141.424 70.9437C144.687 67.5597 148.524 64.931 152.936 63.0577C157.287 61.1845 162 60.2478 167.076 60.2478C172.152 60.2478 176.896 61.1845 181.307 63.0577C185.658 64.931 189.465 67.5597 192.728 70.9437C195.991 74.2673 198.559 78.2556 200.433 82.9086C202.246 87.5616 203.152 92.6377 203.152 98.1367C203.152 103.696 202.246 108.802 200.433 113.455C198.559 118.048 195.991 122.006 192.728 125.33C189.465 128.653 185.658 131.252 181.307 133.125C176.896 134.998 172.152 135.935 167.076 135.935Z" fill="white"/>
</g>
<defs>
<filter id="filter0_d_2005_21" x="0" y="0.247803" width="243.152" height="598.55" filterUnits="userSpaceOnUse" color-interpolation-filters="sRGB">
<feFlood flood-opacity="0" result="BackgroundImageFix"/>
<feColorMatrix in="SourceAlpha" type="matrix" values="0 0 0 0 0 0 0 0 0 0 0 0 0 0 0 0 0 0 127 0" result="hardAlpha"/>
<feOffset dy="-20"/>
<feGaussianBlur stdDeviation="20"/>
<feComposite in2="hardAlpha" operator="out"/>
<feColorMatrix type="matrix" values="0 0 0 0 0 0 0 0 0 0 0 0 0 0 0 0 0 0 0.5 0"/>
<feBlend mode="normal" in2="BackgroundImageFix" result="effect1_dropShadow_2005_21"/>
<feBlend mode="normal" in="SourceGraphic" in2="effect1_dropShadow_2005_21" result="shape"/>
</filter>
</defs>
</svg>
