<svg width="128" height="215" viewBox="0 0 128 215" fill="none" xmlns="http://www.w3.org/2000/svg">
<path d="M3.36001 183H68.96C72.48 183 76.1067 182.893 79.84 182.68C83.4667 182.36 86.7733 181.56 89.76 180.28C92.7467 178.893 95.2 176.76 97.12 173.88C98.9333 171 99.84 166.947 99.84 161.72C99.84 156.493 98.9333 152.493 97.12 149.72C95.2 146.84 92.7467 144.707 89.76 143.32C86.7733 141.933 83.4667 141.133 79.84 140.92C76.1067 140.6 72.48 140.44 68.96 140.44H3.36001L3.36001 109.24L73.28 109.24C92.0533 109.24 105.76 113.56 114.4 122.2C123.04 130.733 127.36 143.907 127.36 161.72C127.36 179.533 123.04 192.76 114.4 201.4C105.76 210.04 92.0533 214.36 73.28 214.36H3.36001L3.36001 183Z" fill="white"/>
<path d="M34.24 17.6512C31.4667 21.0646 29.44 24.4779 28.16 27.8913C26.7733 31.3046 26.08 34.6113 26.08 37.8113C26.08 41.8646 27.04 45.1713 28.96 47.7313C30.88 50.2913 33.3867 51.5713 36.48 51.5713C38.6133 51.5713 40.3733 50.9313 41.76 49.6513C43.1467 48.3713 44.3733 46.7179 45.44 44.6913C46.4 42.5579 47.2533 40.2113 48 37.6512C48.7467 34.9846 49.5467 32.3713 50.4 29.8112C53.8133 19.5712 58.4 12.1046 64.16 7.41125C69.8133 2.61124 77.2267 0.211243 86.4 0.211243C92.5867 0.211242 98.1867 1.27791 103.2 3.41125C108.213 5.43791 112.533 8.47791 116.16 12.5312C119.68 16.4779 122.4 21.3846 124.32 27.2512C126.347 33.0112 127.36 39.5713 127.36 46.9313C127.36 62.1846 122.827 76.3179 113.76 89.3313L88.48 75.8913C92.64 71.1979 95.7333 66.5579 97.76 61.9712C99.7867 57.3846 100.8 52.8512 100.8 48.3712C100.8 43.2512 99.6267 39.4646 97.28 37.0112C94.9333 34.4512 92.2667 33.1712 89.28 33.1712C87.4667 33.1712 85.92 33.4912 84.64 34.1312C83.2533 34.7712 82.0267 35.8379 80.96 37.3313C79.7867 38.8246 78.72 40.7979 77.76 43.2513C76.8 45.5979 75.7333 48.4779 74.56 51.8913C73.28 55.9446 71.8933 59.9446 70.4 63.8913C68.8 67.7313 66.72 71.1979 64.16 74.2913C61.6 77.2779 58.4 79.7313 54.56 81.6513C50.6133 83.4646 45.6533 84.3713 39.68 84.3713C33.7067 84.3713 28.32 83.4113 23.52 81.4913C18.6133 79.4646 14.4533 76.6913 11.04 73.1712C7.52 69.5446 4.8 65.1713 2.88 60.0513C0.960001 54.8246 2.79754e-07 49.0113 0 42.6113C-2.61102e-07 36.6379 0.853331 30.3979 2.55999 23.8913C4.16 17.3846 6.56 11.1446 9.76 5.17125L34.24 17.6512Z" fill="white"/>
</svg>
