<svg width="72" height="121" viewBox="0 0 72 121" fill="none" xmlns="http://www.w3.org/2000/svg">
<path d="M1.89001 103.25H38.79C40.77 103.25 42.81 103.19 44.91 103.07C46.95 102.89 48.81 102.44 50.49 101.72C52.17 100.94 53.55 99.7398 54.63 98.1198C55.65 96.4998 56.16 94.2198 56.16 91.2798C56.16 88.3398 55.65 86.0898 54.63 84.5298C53.55 82.9098 52.17 81.7098 50.49 80.9298C48.81 80.1498 46.95 79.6998 44.91 79.5798C42.81 79.3998 40.77 79.3098 38.79 79.3098H1.89L1.89 61.7598L41.22 61.7598C51.78 61.7598 59.49 64.1898 64.35 69.0498C69.21 73.8498 71.64 81.2598 71.64 91.2798C71.64 101.3 69.21 108.74 64.35 113.6C59.49 118.46 51.78 120.89 41.22 120.89H1.89001L1.89001 103.25Z" fill="white"/>
<path d="M19.26 10.2412C17.7 12.1612 16.56 14.0812 15.84 16.0012C15.06 17.9212 14.67 19.7812 14.67 21.5812C14.67 23.8612 15.21 25.7212 16.29 27.1612C17.37 28.6012 18.78 29.3212 20.52 29.3212C21.72 29.3212 22.71 28.9612 23.49 28.2412C24.27 27.5212 24.96 26.5912 25.56 25.4512C26.1 24.2512 26.58 22.9312 27 21.4912C27.42 19.9912 27.87 18.5212 28.35 17.0812C30.27 11.3212 32.85 7.12116 36.09 4.48115C39.27 1.78115 43.44 0.431153 48.6 0.431152C52.08 0.431152 55.23 1.03115 58.05 2.23116C60.87 3.37116 63.3 5.08115 65.34 7.36115C67.32 9.58115 68.85 12.3412 69.93 15.6412C71.07 18.8812 71.64 22.5712 71.64 26.7112C71.64 35.2912 69.09 43.2412 63.99 50.5612L49.77 43.0012C52.11 40.3612 53.85 37.7512 54.99 35.1712C56.13 32.5912 56.7 30.0412 56.7 27.5212C56.7 24.6412 56.04 22.5112 54.72 21.1312C53.4 19.6912 51.9 18.9712 50.22 18.9712C49.2 18.9712 48.33 19.1512 47.61 19.5112C46.83 19.8712 46.14 20.4712 45.54 21.3112C44.88 22.1512 44.28 23.2612 43.74 24.6412C43.2 25.9612 42.6 27.5812 41.94 29.5012C41.22 31.7812 40.44 34.0312 39.6 36.2512C38.7 38.4112 37.53 40.3612 36.09 42.1012C34.65 43.7812 32.85 45.1612 30.69 46.2412C28.47 47.2612 25.68 47.7712 22.32 47.7712C18.96 47.7712 15.93 47.2312 13.23 46.1512C10.47 45.0112 8.13 43.4512 6.21 41.4712C4.23 39.4312 2.7 36.9712 1.62 34.0912C0.54 31.1512 1.45556e-07 27.8812 0 24.2812C-1.35852e-07 20.9212 0.479999 17.4112 1.44 13.7512C2.34 10.0912 3.69 6.58116 5.49 3.22116L19.26 10.2412Z" fill="white"/>
</svg>
