<svg width="1438" height="226" viewBox="0 0 1438 226" fill="none" xmlns="http://www.w3.org/2000/svg">
<path d="M60.0648 6.61623L111.388 136.052L162.993 6.61623H223.058L133.383 219.24H89.3922L0 6.61623H60.0648Z" fill="#02A5AF"/>
<path d="M332.879 140.282L308.064 69.501L283.248 140.282H332.879ZM347.543 182.299H268.584L255.895 219.24H196.958L277.89 6.61623H338.237L419.169 219.24H360.232L347.543 182.299Z" fill="#02A5AF"/>
<path d="M528.68 100.238H638.376C638.376 111.518 637.906 121.764 636.966 130.976C636.026 140.188 634.146 148.741 631.326 156.637C627.378 167.729 622.02 177.599 615.252 186.247C608.485 194.707 600.495 201.85 591.283 207.678C582.259 213.318 572.295 217.642 561.391 220.65C550.488 223.658 539.02 225.162 526.988 225.162C510.444 225.162 495.311 222.436 481.587 216.984C468.051 211.532 456.396 203.918 446.62 194.143C436.844 184.179 429.23 172.335 423.778 158.611C418.326 144.7 415.6 129.378 415.6 112.646C415.6 96.1025 418.232 80.9688 423.496 67.245C428.948 53.3333 436.562 41.4895 446.338 31.7137C456.302 21.9379 468.239 14.3241 482.151 8.87217C496.063 3.42028 511.572 0.694336 528.68 0.694336C550.864 0.694336 570.321 5.48824 587.053 15.0761C603.785 24.6639 617.038 39.5156 626.814 59.6312L574.363 81.3447C569.475 69.689 563.083 61.3232 555.188 56.2472C547.48 51.1713 538.644 48.6334 528.68 48.6334C520.408 48.6334 512.888 50.2314 506.121 53.4273C499.353 56.4352 493.525 60.8532 488.637 66.681C483.937 72.3209 480.177 79.1828 477.357 87.2666C474.725 95.3505 473.409 104.374 473.409 114.338C473.409 123.362 474.537 131.728 476.793 139.436C479.237 147.143 482.809 153.817 487.509 159.457C492.209 165.097 498.037 169.515 504.993 172.711C511.948 175.719 520.032 177.223 529.244 177.223C534.696 177.223 539.96 176.659 545.036 175.531C550.112 174.215 554.624 172.241 558.572 169.609C562.707 166.789 566.091 163.217 568.723 158.893C571.355 154.569 573.141 149.305 574.081 143.102H528.68V100.238Z" fill="#02A5AF"/>
<path d="M717.301 101.648H727.735C738.639 101.648 747.005 99.3924 752.833 94.8805C758.661 90.3686 761.574 83.8827 761.574 75.4229C761.574 66.963 758.661 60.4772 752.833 55.9652C747.005 51.4533 738.639 49.1974 727.735 49.1974H717.301V101.648ZM838.841 219.24H770.034L717.301 137.462V219.24H662.03V6.61623H748.039C759.883 6.61623 770.222 8.40219 779.058 11.9741C787.894 15.3581 795.132 20.058 800.772 26.0738C806.6 32.0897 810.924 39.0456 813.743 46.9414C816.751 54.8373 818.255 63.2971 818.255 72.3209C818.255 88.4886 814.307 101.648 806.412 111.8C798.704 121.764 787.236 128.532 772.008 132.104L838.841 219.24Z" fill="#02A5AF"/>
<path d="M966.298 140.282L941.483 69.501L916.667 140.282H966.298ZM980.962 182.299H902.003L889.314 219.24H830.377L911.309 6.61623H971.656L1052.59 219.24H993.652L980.962 182.299Z" fill="#02A5AF"/>
<path d="M1065.49 219.24V6.61623H1120.76L1222.84 136.616V6.61623H1277.83V219.24H1222.84L1120.76 89.2406V219.24H1065.49Z" fill="#02A5AF"/>
<path d="M1391.8 53.4273V219.24H1336.53V53.4273H1291.12V6.61623H1437.2V53.4273H1391.8Z" fill="#02A5AF"/>
</svg>
