<svg width="127" height="142" viewBox="0 0 127 142" fill="none" xmlns="http://www.w3.org/2000/svg">
<path d="M126.477 100.485L116.175 93.414C116.052 93.3307 115.897 93.3069 115.754 93.3466C115.611 93.3902 115.496 93.4933 115.437 93.6281C113.982 97.0702 112.205 100.31 110.163 103.328L91.4337 62.2411L93.2261 61.559L93.579 62.4869C93.6544 62.6852 93.8408 62.8081 94.043 62.8081C94.1025 62.8081 94.1619 62.7962 94.2175 62.7764L97.1837 61.6502C97.3066 61.6026 97.4058 61.5114 97.4613 61.3885C97.5168 61.2695 97.5208 61.1307 97.4732 61.0078L96.6285 58.7831L101.51 56.9273L101.851 57.8235C101.926 58.0218 102.117 58.1447 102.315 58.1447C102.375 58.1447 102.434 58.1328 102.49 58.113L106.566 56.5624C106.689 56.5149 106.788 56.4237 106.844 56.3007C106.899 56.1818 106.903 56.043 106.856 55.92L102.018 43.1907C101.919 42.933 101.633 42.8061 101.379 42.9052L97.3026 44.4557C97.1797 44.5033 97.0806 44.5945 97.0251 44.7174C96.9696 44.8364 96.9656 44.9752 97.0132 45.0981L97.3542 45.9943L92.4727 47.8502L91.628 45.6255C91.5804 45.5026 91.4892 45.4035 91.3663 45.348C91.2473 45.2924 91.1085 45.2924 90.9856 45.3361L88.0194 46.4623C87.7656 46.5614 87.6347 46.8469 87.7338 47.1007L88.0868 48.0286L85.418 49.0438L78.518 33.9074C80.9964 30.9412 82.6461 27.2652 83.11 23.2283L86.7623 23.2204C86.8932 23.2204 87.0201 23.1688 87.1113 23.0736C87.2025 22.9824 87.254 22.8555 87.254 22.7247L87.2421 18.775C87.2421 18.5014 87.0201 18.2793 86.7464 18.2793L83.0744 18.2873C81.7935 8.30606 73.2478 0.569336 62.9256 0.569336C52.6034 0.569336 43.7365 8.59554 42.7054 18.8424L39.0968 18.8504C38.8231 18.8504 38.6011 19.0724 38.6011 19.3461L38.609 23.2917C38.609 23.4226 38.6606 23.5495 38.7557 23.6407C38.8469 23.7319 38.9738 23.7835 39.1047 23.7835L42.8046 23.7755C43.332 27.4635 44.8507 30.8342 47.0873 33.6061L40.5125 48.0247L37.8358 46.7557C37.7168 46.7002 37.5819 46.6923 37.459 46.7359C37.3361 46.7795 37.233 46.8707 37.1775 46.9897L35.3097 50.9314C35.1947 51.1773 35.2978 51.4747 35.5437 51.5897L38.2918 52.8904L37.344 54.9723L35.0599 53.8897C34.9409 53.8342 34.8061 53.8262 34.6831 53.8699C34.5602 53.9135 34.4571 54.0047 34.4016 54.1236L32.5339 58.0654C32.4189 58.3112 32.522 58.6087 32.7678 58.7237L35.1194 59.838L15.8033 102.213C14.0664 99.5129 12.5357 96.6419 11.2549 93.6123C11.1954 93.4735 11.0804 93.3704 10.9376 93.3307C10.7949 93.2911 10.6402 93.3149 10.5173 93.3981L0.214899 100.469C0.016623 100.607 -0.0547776 100.869 0.0443603 101.087C5.58022 112.952 14.3242 123.005 25.3245 130.166C36.6223 137.518 49.7283 141.405 63.2349 141.405H63.4451C76.9516 141.405 90.0576 137.518 101.355 130.166C112.356 123.005 121.1 112.948 126.636 101.087C126.739 100.869 126.667 100.607 126.465 100.469L126.477 100.485ZM100.824 129.353C89.6888 136.602 76.7692 140.433 63.453 140.433H63.2428C49.9306 140.433 37.007 136.602 25.8757 129.353C15.1451 122.37 6.59938 112.595 1.13093 101.063L5.50885 98.0576C5.7111 98.4938 5.91336 98.9261 6.12353 99.3504C6.21077 99.5249 6.38525 99.628 6.56767 99.628C6.63904 99.628 6.71436 99.6121 6.78574 99.5764C7.0316 99.4574 7.13473 99.16 7.0118 98.9142C6.7818 98.4462 6.5597 97.9704 6.33763 97.4866L10.5847 94.5719C17.5878 110.66 31.368 122.394 47.7376 126.986C49.0383 134.203 55.3633 139.7 62.9533 139.7C70.5433 139.7 76.7335 134.322 78.1294 127.216C94.8678 122.791 108.993 110.934 116.111 94.5759L120.398 97.5183C120.124 98.1012 119.839 98.6921 119.541 99.283C119.418 99.5288 119.517 99.8262 119.759 99.9492C119.831 99.9849 119.906 100.001 119.981 100.001C120.164 100.001 120.338 99.9016 120.426 99.7271C120.703 99.1799 120.969 98.6286 121.223 98.0854L125.565 101.067C120.096 112.595 111.551 122.37 100.82 129.357L100.824 129.353ZM43.5897 20.8886C43.5897 10.2293 52.2623 1.55675 62.9216 1.55675C73.5809 1.55675 82.2535 10.2293 82.2535 20.8886C82.2535 31.548 73.5809 40.2205 62.9216 40.2205C52.2623 40.2205 43.5897 31.548 43.5897 20.8886ZM102.597 57.0066L98.1116 45.2052L101.264 44.0076L105.749 55.809L102.597 57.0066ZM101.153 55.9993L96.3945 57.8076L92.9445 48.7266L97.7032 46.9183L101.153 55.9993ZM96.3668 60.8928L94.3285 61.6661L88.8363 47.2078L90.8746 46.4345L96.3668 60.8928ZM92.8731 60.6311L68.9651 69.7161L64.5276 58.0376L88.4357 48.9526L92.8731 60.6311ZM67.2519 73.0193L69.3814 72.2104C69.6352 72.1112 69.7661 71.8257 69.667 71.5719L69.314 70.644L83.8159 65.1359L86.2032 70.3704C82.0751 77.1395 75.0402 81.8228 67.2519 83.0005V73.0193ZM61.034 57.7759L63.0723 57.0026L68.5645 71.4609L66.5263 72.2342L61.034 57.7759ZM67.2519 40.744C68.9016 40.3831 70.4759 39.824 71.9471 39.0904L77.8003 51.9347L67.248 55.9438V40.744H67.2519ZM47.6226 60.0085C47.579 59.8855 47.4878 59.7824 47.3688 59.7269L44.6961 58.458L45.6438 56.3761L47.8527 57.423C47.9201 57.4547 47.9914 57.4705 48.0628 57.4705C48.2492 57.4705 48.4276 57.3674 48.5109 57.185L50.3787 53.2433C50.4342 53.1243 50.4421 52.9895 50.3985 52.8626C50.3549 52.7397 50.2637 52.6366 50.1447 52.5811L47.8645 51.4985L53.5947 38.9238C55.3118 39.8161 57.1676 40.4664 59.1226 40.8392V82.9847C50.9497 81.7514 43.7206 76.7469 39.6639 69.4861L42.4754 63.3197L45.0768 64.553C45.1442 64.5847 45.2156 64.6005 45.2869 64.6005C45.4733 64.6005 45.6518 64.4974 45.735 64.319L47.6028 60.3773C47.6583 60.2583 47.6662 60.1235 47.6226 59.9966V60.0085ZM60.114 41.0136C60.9944 41.1366 61.8945 41.204 62.8066 41.208C62.8026 41.2357 62.7907 41.2595 62.7907 41.2912V45.2568C62.7907 45.5304 63.0128 45.7524 63.2864 45.7524C63.56 45.7524 63.7821 45.5304 63.7821 45.2568V41.2912C63.7821 41.2555 63.7702 41.2238 63.7623 41.1921C64.607 41.1564 65.4437 41.0692 66.2606 40.9343V56.3205L64.1747 57.1136L63.8218 56.1857C63.7742 56.0628 63.683 55.9636 63.5601 55.9081C63.4411 55.8526 63.3023 55.8526 63.1794 55.8962L60.2131 57.0224C60.1735 57.0383 60.1418 57.0661 60.11 57.0899V41.0136H60.114ZM78.7321 51.5818L72.8275 38.6264C73.6364 38.1743 74.4097 37.6707 75.1473 37.1155L76.7097 40.5457C76.793 40.7281 76.9714 40.8352 77.1618 40.8352C77.2292 40.8352 77.3006 40.8193 77.368 40.7916C77.6178 40.6766 77.7288 40.3831 77.6138 40.1333L75.9682 36.5247C75.9682 36.5247 75.9483 36.4969 75.9404 36.485C76.5987 35.9338 77.2173 35.343 77.8003 34.7164L84.4901 49.3928L78.7321 51.5818ZM49.9226 36.4969L48.5664 39.4711C48.4514 39.7209 48.5664 40.0143 48.8123 40.1293C48.8797 40.1611 48.9471 40.173 49.0185 40.173C49.2049 40.173 49.3873 40.0659 49.4706 39.8835L50.7237 37.1354C51.3621 37.6152 52.0283 38.0554 52.7223 38.4599L46.9644 51.0861L41.4087 48.453L47.7932 34.4468C48.4514 35.1804 49.1613 35.8664 49.9187 36.5009L49.9226 36.4969ZM49.2683 53.2711L47.8249 56.3166L36.4161 50.9116L37.8595 47.8661L49.2683 53.2711ZM44.7437 55.9518L43.7959 58.0336L38.2402 55.4005L39.188 53.3186L44.7437 55.9518ZM46.4925 60.409L45.049 63.4545L33.6402 58.0495L35.0837 55.004L46.4925 60.409ZM38.7121 61.5511C38.7597 61.6462 38.8351 61.7295 38.9382 61.7771C39.0056 61.8088 39.073 61.8207 39.1443 61.8207C39.18 61.8207 39.2157 61.8128 39.2514 61.8049L41.5752 62.9033L38.6566 69.3076C38.5932 69.4504 38.5971 69.613 38.6725 69.7518C42.9513 77.5718 50.7594 82.9212 59.5549 84.0514C59.6977 84.0673 59.8404 84.0276 59.9475 83.9324C60.0546 83.8373 60.114 83.7024 60.114 83.5597V58.1367L62.7907 65.1874V69.0459C62.7907 69.3195 63.0128 69.5416 63.2864 69.5416C63.56 69.5416 63.7821 69.3195 63.7821 69.0459V67.7967L65.7768 73.0431C65.8244 73.1661 65.9156 73.2652 66.0385 73.3207C66.102 73.3485 66.1733 73.3643 66.2408 73.3643C66.2487 73.3643 66.2526 73.3643 66.2606 73.3643V83.5676C66.2606 83.7104 66.3201 83.8452 66.4271 83.9404C66.5342 84.0355 66.673 84.0792 66.8197 84.0593C75.2147 82.9768 82.8285 77.9643 87.1906 70.6519C87.2738 70.5131 87.2818 70.3386 87.2144 70.1919L84.7478 64.779L90.5057 62.59L109.509 104.276C108.176 106.159 106.737 107.948 105.198 109.641L90.0775 76.4693C90.0061 76.3107 89.8554 76.2037 89.6809 76.1838C89.5064 76.164 89.3359 76.2354 89.2328 76.3742C83.7644 83.4804 75.5557 88.0923 66.7007 89.0281C66.4469 89.0559 66.2566 89.2661 66.2566 89.5199V109.121C65.4476 108.943 64.6149 108.828 63.7623 108.784C63.7663 108.757 63.7781 108.733 63.7781 108.701V104.736C63.7781 104.462 63.5561 104.24 63.2825 104.24C63.0088 104.24 62.7868 104.462 62.7868 104.736V108.701C62.7868 108.725 62.7987 108.745 62.7987 108.768C61.8787 108.776 60.9825 108.868 60.1061 109.03V89.5199C60.1061 89.2661 59.9157 89.0519 59.6619 89.0281C50.4659 88.0566 42.0511 83.175 36.5787 75.6326C36.4756 75.4899 36.305 75.4105 36.1266 75.4304C35.9521 75.4462 35.7975 75.5573 35.7261 75.7159L20.6809 108.725C19.1661 106.98 17.7464 105.14 16.4457 103.201L36.0156 60.2702L38.7121 61.5471V61.5511ZM59.3209 138.244L60.4313 134.1C60.4551 134.013 60.4471 133.926 60.4233 133.846C60.9944 133.989 61.5853 134.08 62.188 134.12C62.1246 134.203 62.0809 134.302 62.0809 134.417V138.676C61.1332 138.621 60.2092 138.474 59.3209 138.244ZM66.5778 110.216L65.4675 114.36C65.4675 114.36 65.4675 114.364 65.4675 114.368C64.9321 114.225 64.3809 114.122 63.8139 114.066C63.8139 114.058 63.8178 114.051 63.8178 114.043V109.784C64.7656 109.839 65.6856 109.986 66.5778 110.216ZM52.7659 123.362H48.507C48.5625 122.414 48.7092 121.494 48.9392 120.602L53.0752 121.708C52.9444 122.247 52.8571 122.802 52.8175 123.37C52.7977 123.37 52.7818 123.358 52.7659 123.358V123.362ZM72.76 121.474C72.6966 121.49 72.6451 121.522 72.5935 121.557C72.4508 121.002 72.2564 120.463 72.0225 119.947C72.0859 119.939 72.1494 119.923 72.2088 119.888L75.8928 117.758C76.3092 118.583 76.6463 119.456 76.8961 120.364L72.7561 121.47L72.76 121.474ZM55.6092 111.762L57.7228 115.427C57.239 115.716 56.779 116.041 56.3507 116.406L53.3528 113.408C54.0468 112.79 54.8042 112.238 55.6092 111.762ZM52.635 114.09L55.629 117.084C55.2404 117.489 54.8795 117.921 54.5623 118.385L50.8784 116.259C51.3939 115.482 51.9847 114.756 52.635 114.09ZM50.3588 117.104L54.0389 119.23C53.7692 119.717 53.5392 120.233 53.3528 120.764C53.3449 120.764 53.3409 120.756 53.337 120.756L49.2247 119.654C49.5221 118.762 49.9028 117.909 50.3628 117.104H50.3588ZM62.8502 115.01C67.8507 115.01 71.9194 119.079 71.9194 124.083C71.9194 129.088 67.8507 133.156 62.8502 133.156C57.8497 133.156 53.7811 129.088 53.7811 124.083C53.7811 119.079 57.8497 115.01 62.8502 115.01ZM71.7092 119.027C71.6656 119.051 71.6339 119.087 71.6021 119.122C71.3206 118.627 70.9994 118.159 70.6425 117.719C70.6861 117.695 70.7297 117.671 70.7654 117.635L73.7713 114.629C74.3899 115.323 74.9411 116.081 75.417 116.886L71.7092 119.027ZM70.0635 116.937C70.0397 116.961 70.0278 116.993 70.008 117.021C69.6115 116.62 69.1832 116.255 68.7271 115.922C68.7509 115.898 68.7747 115.871 68.7906 115.839L70.9161 112.155C71.6933 112.671 72.419 113.261 73.0852 113.912L70.0596 116.937H70.0635ZM67.934 115.343C67.934 115.343 67.9261 115.375 67.9182 115.391C67.4344 115.109 66.9268 114.863 66.3994 114.665C66.4073 114.649 66.4192 114.633 66.4232 114.614L67.5256 110.501C68.4178 110.799 69.2704 111.18 70.0754 111.64L67.934 115.347V115.343ZM60.1814 114.376C59.6342 114.526 59.1068 114.721 58.5992 114.959L56.4777 111.283C57.3025 110.866 58.1749 110.529 59.083 110.279L60.1814 114.376ZM72.772 122.426C72.8076 122.434 72.8433 122.442 72.883 122.442C72.9266 122.442 72.9702 122.438 73.0099 122.426L77.1261 121.323C77.3085 122.223 77.4076 123.151 77.4156 124.103H73.1328C73.0496 124.103 72.9742 124.127 72.9068 124.163C72.9068 124.135 72.9068 124.103 72.9068 124.075C72.9068 123.512 72.8592 122.961 72.768 122.426H72.772ZM62.8225 114.015C62.2515 114.015 61.6923 114.066 61.1451 114.162L60.0427 110.045C60.9428 109.863 61.8708 109.764 62.8225 109.756V114.015ZM59.1147 109.24C52.4328 110.95 47.4799 117.021 47.4799 124.226C47.4799 124.793 47.5116 125.348 47.5711 125.9C37.4828 122.985 28.4176 117.306 21.3947 109.538L36.2773 76.8897C41.829 84.1545 50.0853 88.8854 59.1108 89.96V109.24H59.1147ZM48.4752 124.349H52.758C52.758 124.349 52.7778 124.345 52.7897 124.341C52.8056 124.912 52.865 125.471 52.9721 126.015C52.9404 126.015 52.9126 126.015 52.8809 126.022L48.7647 127.125C48.5823 126.225 48.4832 125.297 48.4752 124.345V124.349ZM53.1387 126.982C53.1625 126.974 53.1823 126.958 53.2021 126.95C53.3647 127.498 53.5709 128.021 53.8207 128.525C53.7771 128.537 53.7295 128.545 53.6899 128.568L50.0019 130.698C49.5856 129.873 49.2485 129.001 48.9987 128.092L53.1387 126.982ZM54.1856 129.425C54.2213 129.405 54.249 129.373 54.2768 129.346C54.5742 129.829 54.9152 130.285 55.288 130.71C55.2285 130.733 55.177 130.769 55.1294 130.817L52.1235 133.823C51.5049 133.129 50.9537 132.371 50.4818 131.566L54.1895 129.425H54.1856ZM55.8313 131.515C55.8749 131.471 55.9027 131.423 55.9264 131.372C56.3428 131.768 56.7909 132.129 57.2708 132.447C57.2033 132.486 57.1438 132.542 57.1042 132.613L54.9747 136.297C54.1975 135.782 53.4718 135.191 52.8056 134.54L55.8313 131.515ZM57.9608 133.109C57.9964 133.045 58.0163 132.974 58.0242 132.903C58.5318 133.184 59.0711 133.414 59.6263 133.605C59.5588 133.664 59.4994 133.739 59.4716 133.838L58.3692 137.951C57.477 137.653 56.6244 137.273 55.8194 136.813L57.9608 133.105V133.109ZM63.0683 134.413C63.0683 134.31 63.0287 134.219 62.9732 134.136C63.5918 134.128 64.1945 134.065 64.7814 133.95C64.7338 134.053 64.714 134.172 64.7458 134.291L65.8482 138.407C64.948 138.589 64.0201 138.688 63.0683 138.696V134.413ZM66.8078 138.173L65.7015 134.033C65.6737 133.922 65.6023 133.838 65.519 133.775C66.1138 133.612 66.6889 133.394 67.2361 133.129C67.2123 133.244 67.2242 133.371 67.2877 133.482L69.4132 137.166C68.5883 137.582 67.7159 137.919 66.8078 138.169V138.173ZM70.2856 136.694L68.1481 132.986C68.0887 132.883 67.9975 132.815 67.8944 132.776C68.4257 132.466 68.9294 132.106 69.3973 131.705C69.4013 131.824 69.4449 131.947 69.54 132.038L72.5459 135.044C71.852 135.663 71.0945 136.214 70.2895 136.69L70.2856 136.694ZM73.2597 134.366L70.234 131.34C70.1507 131.257 70.0437 131.217 69.9366 131.205C70.3688 130.773 70.7654 130.301 71.1143 129.798C71.15 129.909 71.2214 130.008 71.3325 130.071L75.0165 132.197C74.5009 132.974 73.9101 133.7 73.2597 134.366ZM75.5359 131.352L71.8282 129.211C71.733 129.155 71.6259 129.143 71.5268 129.155C71.8321 128.636 72.0938 128.088 72.304 127.517C72.3675 127.601 72.4547 127.668 72.5618 127.7L76.674 128.802C76.3766 129.695 75.9919 130.547 75.5359 131.352ZM76.9596 127.855L72.8195 126.744C72.7244 126.72 72.6332 126.732 72.5459 126.76C72.7046 126.193 72.8116 125.606 72.8671 125.007C72.9464 125.059 73.0337 125.098 73.1368 125.098H77.3958C77.3402 126.046 77.1935 126.966 76.9635 127.858L76.9596 127.855ZM67.244 109.371V89.96C75.9246 88.925 83.9745 84.4559 89.5064 77.6193L104.46 110.426C97.3661 117.945 88.3168 123.401 78.288 126.137C78.3673 125.511 78.4109 124.872 78.4109 124.226C78.4109 117.187 73.684 111.239 67.244 109.371ZM86.2468 19.2588L86.2547 22.2171L83.1894 22.225C83.2171 21.7809 83.237 21.3328 83.237 20.8807C83.237 20.3374 83.2092 19.8021 83.1656 19.2667L86.2428 19.2588H86.2468ZM39.5925 22.7842L39.5846 19.8299L42.6181 19.8219C42.6023 20.1709 42.5904 20.5238 42.5904 20.8807C42.5904 21.5192 42.6221 22.1536 42.6816 22.7762L39.5925 22.7842Z" fill="#00BAC9"/>
<path d="M63.2904 53.6835C63.564 53.6835 63.7861 53.4614 63.7861 53.1878V49.2223C63.7861 48.9486 63.564 48.7266 63.2904 48.7266C63.0168 48.7266 62.7947 48.9486 62.7947 49.2223V53.1878C62.7947 53.4614 63.0168 53.6835 63.2904 53.6835Z" fill="#00BAC9"/>
<path d="M63.2904 85.4076C63.564 85.4076 63.7861 85.1855 63.7861 84.9119V80.9464C63.7861 80.6728 63.564 80.4507 63.2904 80.4507C63.0168 80.4507 62.7947 80.6728 62.7947 80.9464V84.9119C62.7947 85.1855 63.0168 85.4076 63.2904 85.4076Z" fill="#00BAC9"/>
<path d="M63.2904 77.4766C63.564 77.4766 63.7861 77.2545 63.7861 76.9809V73.0154C63.7861 72.7418 63.564 72.5197 63.2904 72.5197C63.0168 72.5197 62.7947 72.7418 62.7947 73.0154V76.9809C62.7947 77.2545 63.0168 77.4766 63.2904 77.4766Z" fill="#00BAC9"/>
<path d="M63.2904 101.27C63.564 101.27 63.7861 101.048 63.7861 100.774V96.8085C63.7861 96.5349 63.564 96.3128 63.2904 96.3128C63.0168 96.3128 62.7947 96.5349 62.7947 96.8085V100.774C62.7947 101.048 63.0168 101.27 63.2904 101.27Z" fill="#00BAC9"/>
<path d="M63.2904 93.3386C63.564 93.3386 63.7861 93.1166 63.7861 92.843V88.8774C63.7861 88.6038 63.564 88.3818 63.2904 88.3818C63.0168 88.3818 62.7947 88.6038 62.7947 88.8774V92.843C62.7947 93.1166 63.0168 93.3386 63.2904 93.3386Z" fill="#00BAC9"/>
<path d="M22.4931 97.8593C22.5606 97.8911 22.628 97.903 22.6994 97.903C22.8857 97.903 23.0682 97.7959 23.1514 97.6135L24.7971 94.0049C24.9121 93.755 24.7971 93.4616 24.5513 93.3466C24.3014 93.2316 24.008 93.3466 23.893 93.5924L22.2473 97.2011C22.1323 97.4509 22.2473 97.7443 22.4931 97.8593Z" fill="#00BAC9"/>
<path d="M35.6547 68.9943C35.7221 69.0261 35.7896 69.038 35.8609 69.038C36.0473 69.038 36.2297 68.9309 36.313 68.7485L37.9587 65.1399C38.0737 64.89 37.9587 64.5966 37.7128 64.4816C37.463 64.3666 37.1696 64.4816 37.0546 64.7274L35.4089 68.3361C35.2939 68.5859 35.4089 68.8793 35.6547 68.9943Z" fill="#00BAC9"/>
<path d="M45.5249 47.3466C45.5923 47.3783 45.6597 47.3902 45.7311 47.3902C45.9175 47.3902 46.0999 47.2831 46.1831 47.1007L47.8288 43.4921C47.9438 43.2423 47.8288 42.9488 47.583 42.8338C47.3332 42.7188 47.0397 42.8338 46.9247 43.0797L45.279 46.6883C45.164 46.9381 45.279 47.2316 45.5249 47.3466Z" fill="#00BAC9"/>
<path d="M19.2058 105.077C19.2732 105.108 19.3405 105.12 19.4119 105.12C19.5983 105.12 19.7807 105.013 19.864 104.831L21.5097 101.222C21.6247 100.972 21.5097 100.679 21.2638 100.564C21.014 100.449 20.7206 100.564 20.6056 100.81L18.9599 104.418C18.8449 104.668 18.9599 104.962 19.2058 105.077Z" fill="#00BAC9"/>
<path d="M32.3633 76.2116C32.4307 76.2433 32.4982 76.2552 32.5695 76.2552C32.7559 76.2552 32.9383 76.1481 33.0216 75.9657L34.6673 72.3571C34.7823 72.1073 34.6673 71.8138 34.4215 71.6988C34.1716 71.5838 33.8782 71.6988 33.7632 71.9447L32.1175 75.5533C32.0025 75.8031 32.1175 76.0966 32.3633 76.2116Z" fill="#00BAC9"/>
<path d="M25.7845 90.6421C25.852 90.6738 25.9194 90.6857 25.9908 90.6857C26.1771 90.6857 26.3596 90.5786 26.4428 90.3962L28.0885 86.7876C28.2035 86.5378 28.0885 86.2443 27.8426 86.1293C27.5928 86.0143 27.2994 86.1293 27.1844 86.3752L25.5387 89.9838C25.4237 90.2336 25.5387 90.5271 25.7845 90.6421Z" fill="#00BAC9"/>
<path d="M29.0759 83.4288C29.1433 83.4605 29.2107 83.4724 29.2821 83.4724C29.4685 83.4724 29.6509 83.3654 29.7342 83.183L31.3799 79.5743C31.4949 79.3245 31.3799 79.0311 31.134 78.9161C30.8842 78.8011 30.5907 78.9161 30.4757 79.1619L28.83 82.7705C28.715 83.0204 28.8301 83.3138 29.0759 83.4288Z" fill="#00BAC9"/>
<path d="M89.8713 69.4107C89.9545 69.5931 90.133 69.7002 90.3233 69.7002C90.3907 69.7002 90.4621 69.6843 90.5295 69.6566C90.7794 69.5416 90.8904 69.2481 90.7754 68.9983L89.1297 65.3897C89.0147 65.1399 88.7212 65.0288 88.4714 65.1438C88.2216 65.2588 88.1106 65.5523 88.2256 65.8021L89.8713 69.4107Z" fill="#00BAC9"/>
<path d="M96.45 83.8412C96.5333 84.0236 96.7118 84.1307 96.9021 84.1307C96.9695 84.1307 97.0409 84.1149 97.1083 84.0871C97.3581 83.9721 97.4692 83.6786 97.3542 83.4288L95.7085 79.8202C95.5935 79.5704 95.3001 79.4593 95.0502 79.5743C94.8004 79.6893 94.6894 79.9828 94.8044 80.2326L96.45 83.8412Z" fill="#00BAC9"/>
<path d="M99.7414 91.0585C99.8247 91.2409 100.003 91.348 100.194 91.348C100.261 91.348 100.332 91.3321 100.4 91.3043C100.65 91.1893 100.761 90.8959 100.646 90.6461L98.9999 87.0374C98.8849 86.7876 98.5914 86.6766 98.3416 86.7916C98.0918 86.9066 97.9807 87.2 98.0957 87.4499L99.7414 91.0585Z" fill="#00BAC9"/>
<path d="M93.1587 76.624C93.242 76.8064 93.4204 76.9135 93.6108 76.9135C93.6782 76.9135 93.7495 76.8976 93.8169 76.8699C94.0668 76.7549 94.1778 76.4614 94.0628 76.2116L92.4171 72.603C92.3021 72.3531 92.0087 72.2421 91.7588 72.3571C91.509 72.4721 91.398 72.7655 91.513 73.0154L93.1587 76.624Z" fill="#00BAC9"/>
<path d="M78.3554 44.1504L80.0011 47.759C80.0843 47.9414 80.2628 48.0485 80.4531 48.0485C80.5206 48.0485 80.5919 48.0326 80.6594 48.0049C80.9092 47.8899 81.0202 47.5964 80.9052 47.3466L79.2595 43.738C79.1445 43.4881 78.8511 43.3771 78.6012 43.4921C78.3514 43.6071 78.2404 43.9005 78.3554 44.1504Z" fill="#00BAC9"/>
<path d="M106.32 105.493C106.403 105.675 106.582 105.782 106.772 105.782C106.84 105.782 106.911 105.767 106.978 105.739C107.228 105.624 107.339 105.33 107.224 105.081L105.579 101.472C105.464 101.222 105.17 101.115 104.92 101.226C104.671 101.341 104.56 101.635 104.675 101.884L106.32 105.493Z" fill="#00BAC9"/>
<path d="M103.029 98.2757C103.112 98.4581 103.291 98.5652 103.481 98.5652C103.548 98.5652 103.62 98.5493 103.687 98.5216C103.937 98.4066 104.048 98.1131 103.933 97.8633L102.287 94.2547C102.172 94.0049 101.879 93.8938 101.629 94.0088C101.379 94.1238 101.268 94.4173 101.383 94.6671L103.029 98.2757Z" fill="#00BAC9"/>
<path d="M49.3675 132.225C48.0787 131.935 46.782 131.598 45.517 131.229C45.2552 131.154 44.9776 131.305 44.9023 131.566C44.8269 131.828 44.9776 132.106 45.2393 132.181C46.5242 132.558 47.8408 132.899 49.1494 133.192C49.1851 133.2 49.2207 133.204 49.2604 133.204C49.4864 133.204 49.6927 133.049 49.7442 132.815C49.8037 132.55 49.6371 132.284 49.3675 132.225Z" fill="#00BAC9"/>
<path d="M80.8457 131.356C79.5807 131.721 78.284 132.05 76.9913 132.332C76.7256 132.391 76.555 132.653 76.6145 132.922C76.6661 133.152 76.8723 133.311 77.0983 133.311C77.134 133.311 77.1697 133.311 77.2054 133.299C78.518 133.014 79.8346 132.681 81.1194 132.308C81.3811 132.232 81.5358 131.959 81.4604 131.693C81.3851 131.431 81.1114 131.277 80.8457 131.352V131.356Z" fill="#00BAC9"/>
<path d="M101.986 120.594C100.943 121.407 99.8604 122.196 98.7699 122.933C98.5439 123.088 98.4844 123.397 98.639 123.623C98.7342 123.766 98.8888 123.841 99.0475 123.841C99.1426 123.841 99.2418 123.814 99.325 123.754C100.431 123.001 101.53 122.204 102.589 121.375C102.803 121.208 102.842 120.895 102.676 120.681C102.509 120.467 102.196 120.427 101.982 120.594H101.986Z" fill="#00BAC9"/>
<path d="M95.415 125.071C94.2769 125.745 93.1072 126.387 91.9294 126.986C91.6835 127.109 91.5883 127.41 91.7113 127.652C91.7985 127.823 91.973 127.922 92.1554 127.922C92.2308 127.922 92.3061 127.906 92.3814 127.866C93.575 127.26 94.7647 126.605 95.9226 125.919C96.1566 125.781 96.2359 125.475 96.0971 125.241C95.9583 125.003 95.653 124.928 95.419 125.067L95.415 125.071Z" fill="#00BAC9"/>
<path d="M88.3287 128.679C87.1192 129.203 85.874 129.691 84.6289 130.139C84.3711 130.23 84.2363 130.515 84.3275 130.773C84.3989 130.975 84.5892 131.102 84.7954 131.102C84.8509 131.102 84.9064 131.094 84.962 131.075C86.227 130.622 87.492 130.123 88.7213 129.595C88.9711 129.488 89.0901 129.195 88.979 128.945C88.872 128.695 88.5785 128.576 88.3287 128.687V128.679Z" fill="#00BAC9"/>
<path d="M10.8425 106.528C11.0725 106.377 11.132 106.068 10.9813 105.842C10.2556 104.743 9.54973 103.605 8.89145 102.459C8.75663 102.221 8.45125 102.142 8.21332 102.277C7.97539 102.412 7.89213 102.717 8.03092 102.955C8.70109 104.121 9.41488 105.275 10.1525 106.393C10.2476 106.536 10.4063 106.615 10.5649 106.615C10.6601 106.615 10.7552 106.587 10.8385 106.532L10.8425 106.528Z" fill="#00BAC9"/>
<path d="M41.7378 129.992C40.4926 129.54 39.2515 129.044 38.042 128.521C37.7921 128.41 37.4987 128.525 37.3876 128.775C37.2766 129.024 37.3916 129.318 37.6454 129.429C38.8708 129.964 40.1358 130.468 41.3968 130.924C41.4523 130.944 41.5078 130.956 41.5673 130.956C41.7696 130.956 41.9599 130.829 42.0313 130.63C42.1264 130.373 41.9916 130.087 41.7338 129.996L41.7378 129.992Z" fill="#00BAC9"/>
<path d="M18.488 115.09C18.2976 114.895 17.9804 114.891 17.7861 115.086C17.5918 115.276 17.5878 115.593 17.7821 115.787C18.7219 116.743 19.7094 117.679 20.7087 118.575C20.8038 118.658 20.9228 118.702 21.0378 118.702C21.1727 118.702 21.3114 118.647 21.4066 118.536C21.589 118.329 21.5732 118.02 21.367 117.834C20.3835 116.953 19.4119 116.033 18.488 115.093V115.09Z" fill="#00BAC9"/>
<path d="M118.316 102.594C118.082 102.455 117.777 102.535 117.638 102.773C116.972 103.911 116.258 105.041 115.516 106.135C115.362 106.361 115.421 106.671 115.647 106.825C115.73 106.881 115.83 106.909 115.925 106.909C116.083 106.909 116.238 106.833 116.337 106.691C117.091 105.58 117.816 104.43 118.494 103.272C118.633 103.034 118.554 102.733 118.316 102.594Z" fill="#00BAC9"/>
<path d="M24.4164 120.387C24.2023 120.217 23.889 120.257 23.7225 120.471C23.552 120.685 23.5916 120.998 23.8057 121.169C24.8606 121.997 25.955 122.802 27.0614 123.56C27.1487 123.619 27.2438 123.647 27.3429 123.647C27.5016 123.647 27.6562 123.572 27.7514 123.433C27.9061 123.207 27.8506 122.898 27.6245 122.743C26.538 121.997 25.4593 121.204 24.4204 120.387H24.4164Z" fill="#00BAC9"/>
<path d="M34.4492 126.816C33.2754 126.213 32.1056 125.562 30.9714 124.888C30.7375 124.746 30.4322 124.825 30.2934 125.059C30.1546 125.293 30.2299 125.598 30.4639 125.737C31.6179 126.423 32.8035 127.085 33.9971 127.696C34.0685 127.732 34.1479 127.751 34.2232 127.751C34.4017 127.751 34.5761 127.652 34.6634 127.482C34.7903 127.236 34.6911 126.938 34.4492 126.816Z" fill="#00BAC9"/>
<path d="M110.702 113.123C110.797 113.206 110.912 113.246 111.027 113.246C111.166 113.246 111.301 113.19 111.4 113.079C112.284 112.072 113.149 111.021 113.97 109.962C114.136 109.744 114.097 109.435 113.879 109.268C113.66 109.102 113.351 109.141 113.185 109.359C112.376 110.402 111.527 111.437 110.655 112.429C110.476 112.635 110.496 112.948 110.698 113.127L110.702 113.123Z" fill="#00BAC9"/>
<path d="M108.64 116.029C108.834 115.835 108.834 115.522 108.64 115.327C108.446 115.133 108.133 115.137 107.938 115.327C107.006 116.263 106.031 117.179 105.043 118.056C104.837 118.238 104.817 118.551 105 118.758C105.099 118.869 105.234 118.924 105.372 118.924C105.487 118.924 105.606 118.885 105.702 118.801C106.705 117.913 107.696 116.981 108.64 116.033V116.029Z" fill="#00BAC9"/>
<path d="M12.4961 109.681C13.3051 110.747 14.1656 111.802 15.042 112.817C15.1411 112.932 15.2799 112.988 15.4187 112.988C15.5337 112.988 15.6487 112.948 15.7438 112.869C15.9501 112.69 15.9739 112.377 15.7954 112.171C14.9309 111.172 14.0903 110.137 13.2892 109.082C13.1227 108.864 12.8134 108.82 12.5953 108.987C12.3771 109.153 12.3335 109.462 12.5001 109.681H12.4961Z" fill="#00BAC9"/>
<path d="M62.9573 127.371C64.6902 127.371 66.098 125.963 66.098 124.23C66.098 122.497 64.6902 121.089 62.9573 121.089C61.2244 121.089 59.8166 122.497 59.8166 124.23C59.8166 125.963 61.2244 127.371 62.9573 127.371ZM62.9573 122.085C64.143 122.085 65.1066 123.048 65.1066 124.234C65.1066 125.42 64.143 126.383 62.9573 126.383C61.7716 126.383 60.808 125.42 60.808 124.234C60.808 123.048 61.7716 122.085 62.9573 122.085Z" fill="#00BAC9"/>
<path d="M79.3944 20.8886C79.3944 11.8076 72.0066 4.41589 62.9216 4.41589C59.7175 4.41589 56.7275 5.33985 54.1975 6.92606C54.1856 6.93003 54.1776 6.94192 54.1657 6.94589C52.7223 7.85796 51.4256 8.98416 50.3271 10.2849C50.3192 10.2928 50.3113 10.2928 50.3033 10.3007C50.2875 10.3166 50.2835 10.3324 50.2716 10.3483C47.8844 13.2074 46.4449 16.8835 46.4449 20.8886C46.4449 24.8938 47.8844 28.5699 50.2716 31.429C50.2835 31.4449 50.2875 31.4607 50.3033 31.4766C50.3113 31.4845 50.3192 31.4845 50.3271 31.4924C51.4137 32.7812 52.6906 33.8955 54.1182 34.8036C54.1459 34.8195 54.1697 34.8433 54.1975 34.8552C56.7275 36.4414 59.7175 37.3654 62.9216 37.3654C72.0027 37.3654 79.3944 29.9776 79.3944 20.8926V20.8886ZM62.9216 36.37C62.0334 36.37 61.1649 36.2907 60.3163 36.148L75.2227 21.2416C75.2663 21.194 75.3059 21.1424 75.3297 21.083C75.3535 21.0235 75.3694 20.96 75.3694 20.8926C75.3694 20.8252 75.3575 20.7618 75.3297 20.7023C75.3059 20.6428 75.2663 20.5873 75.2227 20.5436L60.3163 5.63727C61.1649 5.49451 62.0334 5.4152 62.9216 5.4152C71.4554 5.4152 78.403 12.3588 78.403 20.8966C78.403 29.4343 71.4594 36.378 62.9216 36.378V36.37ZM59.1584 35.9061C57.7466 35.5531 56.4142 35.0019 55.1849 34.2921L68.0887 21.3883H73.6761L59.1584 35.9061ZM68.0887 20.3969L55.1849 7.49313C56.4142 6.7833 57.7466 6.23209 59.1544 5.87916L73.6761 20.3969H68.0887ZM61.0975 20.3969L51.3383 10.6378C52.2147 9.6464 53.218 8.77003 54.3204 8.02847L66.6889 20.3969H61.0975ZM60.1894 20.8926L50.6999 30.3821C48.6576 27.7569 47.4363 24.4655 47.4363 20.8926C47.4363 17.3197 48.6576 14.0283 50.6999 11.4031L60.1894 20.8926ZM51.3344 31.1474L61.0935 21.3883H66.6809L54.3125 33.7567C53.21 33.0192 52.2107 32.1388 51.3344 31.1474Z" fill="#00BAC9"/>
</svg>
